<svg width="335" height="459" viewBox="0 0 335 459" fill="none" xmlns="http://www.w3.org/2000/svg">
<path d="M0 104C0 101.239 2.23858 99 5 99H291C293.761 99 296 101.239 296 104V139H0V104Z" fill="#2CD997"/>
<path d="M15.808 113.44C16.6187 113.44 17.312 113.579 17.888 113.856C18.464 114.123 18.9067 114.512 19.216 115.024C19.536 115.525 19.696 116.133 19.696 116.848C19.696 117.563 19.536 118.176 19.216 118.688C18.9067 119.189 18.464 119.579 17.888 119.856C17.312 120.123 16.6187 120.256 15.808 120.256H13.584V124H11.376V113.44H15.808ZM15.472 118.512C16.1333 118.512 16.6293 118.373 16.96 118.096C17.2907 117.808 17.456 117.392 17.456 116.848C17.456 116.293 17.2907 115.877 16.96 115.6C16.6293 115.323 16.1333 115.184 15.472 115.184H13.584V118.512H15.472ZM21.6557 124V116H23.5598L23.7037 117.568C23.9171 117.013 24.2264 116.587 24.6318 116.288C25.0478 115.989 25.5651 115.84 26.1838 115.84C26.3651 115.84 26.5304 115.856 26.6797 115.888C26.8291 115.92 26.9517 115.963 27.0477 116.016L26.7917 117.856C26.6851 117.813 26.5518 117.781 26.3918 117.76C26.2424 117.739 26.0451 117.728 25.7998 117.728C25.4798 117.728 25.1704 117.808 24.8717 117.968C24.5731 118.117 24.3277 118.352 24.1358 118.672C23.9437 118.981 23.8477 119.376 23.8477 119.856V124H21.6557ZM32.0575 115.84C32.8682 115.84 33.5775 116.005 34.1855 116.336C34.8042 116.667 35.2842 117.141 35.6255 117.76C35.9775 118.379 36.1535 119.125 36.1535 120C36.1535 120.864 35.9775 121.611 35.6255 122.24C35.2842 122.859 34.8042 123.333 34.1855 123.664C33.5775 123.995 32.8682 124.16 32.0575 124.16C31.2575 124.16 30.5482 123.995 29.9295 123.664C29.3108 123.333 28.8255 122.859 28.4735 122.24C28.1322 121.611 27.9615 120.864 27.9615 120C27.9615 119.125 28.1322 118.379 28.4735 117.76C28.8255 117.141 29.3108 116.667 29.9295 116.336C30.5482 116.005 31.2575 115.84 32.0575 115.84ZM32.0575 117.472C31.6522 117.472 31.3055 117.568 31.0175 117.76C30.7402 117.941 30.5268 118.219 30.3775 118.592C30.2282 118.965 30.1535 119.435 30.1535 120C30.1535 120.565 30.2282 121.035 30.3775 121.408C30.5268 121.781 30.7402 122.064 31.0175 122.256C31.3055 122.437 31.6522 122.528 32.0575 122.528C32.4522 122.528 32.7882 122.437 33.0655 122.256C33.3535 122.064 33.5722 121.781 33.7215 121.408C33.8708 121.035 33.9455 120.565 33.9455 120C33.9455 119.435 33.8708 118.965 33.7215 118.592C33.5722 118.219 33.3535 117.941 33.0655 117.76C32.7882 117.568 32.4522 117.472 32.0575 117.472ZM41.1716 124.16C40.5103 124.16 39.9183 123.995 39.3956 123.664C38.8836 123.333 38.4783 122.859 38.1796 122.24C37.8916 121.621 37.7476 120.88 37.7476 120.016C37.7476 119.131 37.9023 118.379 38.2116 117.76C38.521 117.131 38.937 116.656 39.4596 116.336C39.993 116.005 40.5903 115.84 41.2516 115.84C41.9556 115.84 42.537 116.043 42.9956 116.448C43.4543 116.853 43.753 117.376 43.8916 118.016L43.6836 118.272V112.496H45.8756V124H43.9076L43.7636 121.568L44.0356 121.696C43.961 122.197 43.7903 122.635 43.5236 123.008C43.257 123.371 42.921 123.653 42.5156 123.856C42.1103 124.059 41.6623 124.16 41.1716 124.16ZM41.8116 122.48C42.1956 122.48 42.5263 122.384 42.8036 122.192C43.081 121.989 43.2943 121.696 43.4436 121.312C43.6036 120.928 43.6836 120.469 43.6836 119.936C43.6836 119.424 43.609 118.992 43.4596 118.64C43.3103 118.277 43.097 118 42.8196 117.808C42.5423 117.616 42.217 117.52 41.8436 117.52C41.2463 117.52 40.777 117.733 40.4356 118.16C40.105 118.576 39.9396 119.189 39.9396 120C39.9396 120.811 40.105 121.429 40.4356 121.856C40.7663 122.272 41.225 122.48 41.8116 122.48ZM51.1229 124.16C50.5895 124.16 50.1095 124.064 49.6829 123.872C49.2562 123.68 48.9149 123.376 48.6589 122.96C48.4135 122.533 48.2909 121.984 48.2909 121.312V116H50.4829V120.784C50.4829 121.403 50.6109 121.835 50.8669 122.08C51.1229 122.315 51.4909 122.432 51.9709 122.432C52.1949 122.432 52.4135 122.395 52.6269 122.32C52.8402 122.235 53.0269 122.107 53.1869 121.936C53.3575 121.765 53.4909 121.547 53.5869 121.28C53.6829 121.003 53.7309 120.677 53.7309 120.304V116H55.9229V124H53.9709L53.8909 122.608C53.6242 123.141 53.2562 123.536 52.7869 123.792C52.3282 124.037 51.7735 124.16 51.1229 124.16ZM62.0215 115.84C62.7362 115.84 63.3388 115.947 63.8295 116.16C64.3308 116.363 64.7308 116.645 65.0295 117.008C65.3388 117.36 65.5575 117.755 65.6855 118.192L63.6375 118.928C63.5308 118.448 63.3495 118.085 63.0935 117.84C62.8375 117.595 62.4908 117.472 62.0535 117.472C61.6482 117.472 61.3015 117.568 61.0135 117.76C60.7255 117.941 60.5068 118.224 60.3575 118.608C60.2082 118.981 60.1335 119.451 60.1335 120.016C60.1335 120.581 60.2082 121.051 60.3575 121.424C60.5175 121.797 60.7415 122.075 61.0295 122.256C61.3282 122.437 61.6748 122.528 62.0695 122.528C62.3895 122.528 62.6615 122.475 62.8855 122.368C63.1095 122.251 63.2908 122.085 63.4295 121.872C63.5788 121.659 63.6802 121.403 63.7335 121.104L65.7175 121.744C65.6002 122.224 65.3815 122.645 65.0615 123.008C64.7415 123.371 64.3308 123.653 63.8295 123.856C63.3282 124.059 62.7468 124.16 62.0855 124.16C61.2642 124.16 60.5388 123.995 59.9095 123.664C59.2802 123.333 58.7948 122.859 58.4535 122.24C58.1122 121.621 57.9415 120.875 57.9415 120C57.9415 119.125 58.1122 118.379 58.4535 117.76C58.7948 117.141 59.2748 116.667 59.8935 116.336C60.5122 116.005 61.2215 115.84 62.0215 115.84ZM70.4127 113.552V121.392C70.4127 121.776 70.5087 122.059 70.7007 122.24C70.9034 122.411 71.1754 122.496 71.5167 122.496C71.7834 122.496 72.0181 122.459 72.2207 122.384C72.4234 122.299 72.6047 122.187 72.7647 122.048L73.1167 123.504C72.8607 123.707 72.5407 123.867 72.1567 123.984C71.7727 124.101 71.3674 124.16 70.9407 124.16C70.4074 124.16 69.9327 124.08 69.5167 123.92C69.1114 123.76 68.7914 123.504 68.5567 123.152C68.3327 122.8 68.2207 122.331 68.2207 121.744V114.16L70.4127 113.552ZM72.9727 116V117.632H66.7487V116H72.9727Z" fill="white"/>
<rect width="296" height="40" transform="translate(0 139)" fill="white"/>
<path d="M11.26 164V154.228H17.28V155.25H12.436V158.54H17.112V159.562H12.436V162.978H17.28V164H11.26ZM25.1285 164L24.3025 161.214H20.8725L20.0465 164H18.8285L21.8245 154.228H23.3785L26.3745 164H25.1285ZM22.6505 155.474H22.5245L21.1525 160.192H24.0225L22.6505 155.474ZM29.0711 155.768H28.9731V164H27.9091V154.228H29.5751L32.9071 162.46H33.0051V154.228H34.0691V164H32.4031L29.0711 155.768ZM38.5296 160.99V158.792C39.3323 158.755 39.9623 158.582 40.4196 158.274C40.8769 157.957 41.1056 157.481 41.1056 156.846V156.65C41.1056 156.127 40.9469 155.735 40.6296 155.474C40.3216 155.213 39.8969 155.082 39.3556 155.082C38.7956 155.082 38.3476 155.236 38.0116 155.544C37.6756 155.852 37.4423 156.244 37.3116 156.72L36.2616 156.328C36.3549 156.02 36.4856 155.731 36.6536 155.46C36.8216 155.18 37.0316 154.937 37.2836 154.732C37.5449 154.527 37.8483 154.363 38.1936 154.242C38.5483 154.121 38.9496 154.06 39.3976 154.06C39.8456 154.06 40.2469 154.125 40.6016 154.256C40.9656 154.377 41.2736 154.555 41.5256 154.788C41.7776 155.012 41.9736 155.287 42.1136 155.614C42.2536 155.941 42.3236 156.305 42.3236 156.706C42.3236 157.145 42.2443 157.532 42.0856 157.868C41.9269 158.195 41.7216 158.475 41.4696 158.708C41.2176 158.941 40.9283 159.133 40.6016 159.282C40.2843 159.422 39.9623 159.52 39.6356 159.576V160.99H38.5296ZM39.1316 164.126C38.7489 164.126 38.4783 164.047 38.3196 163.888C38.1703 163.729 38.0956 163.529 38.0956 163.286V163.034C38.0956 162.791 38.1703 162.591 38.3196 162.432C38.4783 162.273 38.7489 162.194 39.1316 162.194C39.5143 162.194 39.7803 162.273 39.9296 162.432C40.0883 162.591 40.1676 162.791 40.1676 163.034V163.286C40.1676 163.529 40.0883 163.729 39.9296 163.888C39.7803 164.047 39.5143 164.126 39.1316 164.126Z" fill="black"/>
<path d="M145.648 155.18C145.321 155.18 145.093 155.115 144.962 154.984C144.831 154.844 144.766 154.671 144.766 154.466V154.242C144.766 154.037 144.831 153.869 144.962 153.738C145.093 153.598 145.321 153.528 145.648 153.528C145.975 153.528 146.203 153.598 146.334 153.738C146.465 153.869 146.53 154.037 146.53 154.242V154.466C146.53 154.671 146.465 154.844 146.334 154.984C146.203 155.115 145.975 155.18 145.648 155.18ZM142.484 163.048H145.088V157.728H142.484V156.776H146.208V163.048H148.644V164H142.484V163.048ZM150.767 164V156.776H151.887V157.952H151.943C152.017 157.775 152.111 157.607 152.223 157.448C152.335 157.28 152.47 157.135 152.629 157.014C152.797 156.893 152.993 156.795 153.217 156.72C153.441 156.645 153.702 156.608 154.001 156.608C154.757 156.608 155.363 156.851 155.821 157.336C156.278 157.812 156.507 158.489 156.507 159.366V164H155.387V159.562C155.387 158.899 155.242 158.409 154.953 158.092C154.663 157.765 154.239 157.602 153.679 157.602C153.455 157.602 153.235 157.63 153.021 157.686C152.806 157.742 152.615 157.826 152.447 157.938C152.279 158.05 152.143 158.195 152.041 158.372C151.938 158.549 151.887 158.755 151.887 158.988V164H150.767ZM162.339 164C161.788 164 161.382 163.846 161.121 163.538C160.869 163.23 160.743 162.833 160.743 162.348V157.728H158.335V156.776H160.127C160.37 156.776 160.538 156.729 160.631 156.636C160.734 156.533 160.785 156.361 160.785 156.118V154.228H161.863V156.776H165.153V157.728H161.863V163.048H165.153V164H162.339Z" fill="#E98C00"/>
<line y1="178.5" x2="296" y2="178.5" stroke="black" stroke-opacity="0.2"/>
<line x1="0.5" y1="139" x2="0.499998" y2="178" stroke="black" stroke-opacity="0.2"/>
<line x1="295.678" y1="139" x2="295.678" y2="178" stroke="black" stroke-opacity="0.2"/>
<rect width="296" height="40" transform="translate(0 179)" fill="white"/>
<rect width="296" height="40" transform="translate(0 179)" fill="white" fill-opacity="0.02"/>
<path d="M14.172 204.168C13.2947 204.168 12.576 204.009 12.016 203.692C11.456 203.365 10.994 202.95 10.63 202.446L11.484 201.746C11.8667 202.222 12.268 202.577 12.688 202.81C13.1173 203.043 13.626 203.16 14.214 203.16C14.9233 203.16 15.4647 202.997 15.838 202.67C16.2113 202.343 16.398 201.886 16.398 201.298C16.398 200.822 16.2627 200.453 15.992 200.192C15.7213 199.921 15.25 199.73 14.578 199.618L13.486 199.436C13.01 199.352 12.6087 199.226 12.282 199.058C11.9647 198.89 11.708 198.689 11.512 198.456C11.316 198.213 11.176 197.952 11.092 197.672C11.008 197.383 10.966 197.084 10.966 196.776C10.966 195.88 11.26 195.203 11.848 194.746C12.436 194.289 13.2293 194.06 14.228 194.06C15.012 194.06 15.67 194.191 16.202 194.452C16.7433 194.713 17.1773 195.082 17.504 195.558L16.678 196.272C16.4073 195.917 16.0807 195.628 15.698 195.404C15.3153 195.18 14.8207 195.068 14.214 195.068C13.5513 195.068 13.0427 195.208 12.688 195.488C12.3333 195.768 12.156 196.188 12.156 196.748C12.156 197.187 12.2867 197.546 12.548 197.826C12.8187 198.097 13.2993 198.293 13.99 198.414L15.04 198.596C15.516 198.68 15.9173 198.806 16.244 198.974C16.5707 199.142 16.832 199.343 17.028 199.576C17.2333 199.809 17.378 200.071 17.462 200.36C17.546 200.649 17.588 200.953 17.588 201.27C17.588 202.175 17.2893 202.885 16.692 203.398C16.104 203.911 15.264 204.168 14.172 204.168ZM22.1605 199.212L20.7605 200.864V204H19.5845V194.228H20.7605V199.324H20.8025L22.0905 197.7L24.9745 194.228H26.3885L22.9585 198.344L26.4865 204H25.1145L22.1605 199.212ZM29.0851 194.228V200.094C29.0851 200.57 29.0991 200.995 29.1271 201.368C29.1551 201.741 29.2297 202.063 29.3511 202.334C29.4724 202.595 29.6591 202.796 29.9111 202.936C30.1724 203.076 30.5317 203.146 30.9891 203.146C31.4464 203.146 31.8011 203.076 32.0531 202.936C32.3144 202.796 32.5057 202.595 32.6271 202.334C32.7484 202.063 32.8231 201.741 32.8511 201.368C32.8791 200.995 32.8931 200.57 32.8931 200.094V194.228H34.0691V199.814C34.0691 200.542 34.0317 201.177 33.9571 201.718C33.8917 202.259 33.7471 202.712 33.5231 203.076C33.3084 203.44 32.9957 203.715 32.5851 203.902C32.1837 204.079 31.6517 204.168 30.9891 204.168C30.3264 204.168 29.7897 204.079 29.3791 203.902C28.9777 203.715 28.6651 203.44 28.4411 203.076C28.2264 202.712 28.0817 202.259 28.0071 201.718C27.9417 201.177 27.9091 200.542 27.9091 199.814V194.228H29.0851Z" fill="black"/>
<path d="M144.486 204L141.896 196.776H143.03L144.066 199.8L145.186 203.062H145.242L146.362 199.8L147.398 196.776H148.504L145.914 204H144.486ZM156.325 204C155.886 204 155.573 203.888 155.387 203.664C155.2 203.44 155.083 203.16 155.037 202.824H154.967C154.808 203.244 154.551 203.575 154.197 203.818C153.851 204.051 153.385 204.168 152.797 204.168C152.041 204.168 151.439 203.972 150.991 203.58C150.543 203.188 150.319 202.651 150.319 201.97C150.319 201.298 150.561 200.78 151.047 200.416C151.541 200.052 152.335 199.87 153.427 199.87H154.967V199.156C154.967 198.624 154.817 198.227 154.519 197.966C154.22 197.695 153.795 197.56 153.245 197.56C152.759 197.56 152.363 197.658 152.055 197.854C151.747 198.041 151.499 198.297 151.313 198.624L150.557 198.064C150.65 197.877 150.776 197.695 150.935 197.518C151.093 197.341 151.289 197.187 151.523 197.056C151.756 196.916 152.022 196.809 152.321 196.734C152.619 196.65 152.951 196.608 153.315 196.608C154.164 196.608 154.836 196.823 155.331 197.252C155.835 197.681 156.087 198.279 156.087 199.044V203.02H157.095V204H156.325ZM152.993 203.23C153.282 203.23 153.543 203.197 153.777 203.132C154.019 203.057 154.229 202.964 154.407 202.852C154.584 202.731 154.719 202.591 154.813 202.432C154.915 202.264 154.967 202.087 154.967 201.9V200.71H153.427C152.755 200.71 152.265 200.803 151.957 200.99C151.649 201.177 151.495 201.447 151.495 201.802V202.096C151.495 202.469 151.625 202.754 151.887 202.95C152.157 203.137 152.526 203.23 152.993 203.23ZM158.867 203.048H160.981V197.728H158.867V196.776H162.101V198.596H162.171C162.32 198.027 162.6 197.583 163.011 197.266C163.431 196.939 163.963 196.776 164.607 196.776H165.615V197.896H164.257C163.613 197.896 163.09 198.083 162.689 198.456C162.297 198.829 162.101 199.319 162.101 199.926V203.048H164.901V204H158.867V203.048ZM170.636 204.168C170.113 204.168 169.646 204.079 169.236 203.902C168.834 203.715 168.494 203.459 168.214 203.132C167.934 202.805 167.719 202.409 167.57 201.942C167.43 201.475 167.36 200.957 167.36 200.388C167.36 199.819 167.434 199.301 167.584 198.834C167.733 198.367 167.948 197.971 168.228 197.644C168.508 197.308 168.848 197.051 169.25 196.874C169.651 196.697 170.108 196.608 170.622 196.608C171.322 196.608 171.891 196.762 172.33 197.07C172.768 197.378 173.09 197.779 173.296 198.274L172.4 198.75C172.269 198.377 172.05 198.087 171.742 197.882C171.443 197.677 171.07 197.574 170.622 197.574C170.295 197.574 170.001 197.63 169.74 197.742C169.488 197.845 169.273 197.994 169.096 198.19C168.918 198.386 168.783 198.619 168.69 198.89C168.606 199.161 168.564 199.455 168.564 199.772V201.004C168.564 201.321 168.606 201.615 168.69 201.886C168.783 202.157 168.918 202.39 169.096 202.586C169.273 202.782 169.492 202.936 169.754 203.048C170.015 203.151 170.314 203.202 170.65 203.202C171.135 203.202 171.536 203.09 171.854 202.866C172.171 202.642 172.423 202.334 172.61 201.942L173.408 202.488C173.193 202.973 172.857 203.375 172.4 203.692C171.952 204.009 171.364 204.168 170.636 204.168ZM175.95 193.64H177.07V197.952H177.126C177.201 197.775 177.294 197.607 177.406 197.448C177.518 197.28 177.653 197.135 177.812 197.014C177.98 196.893 178.176 196.795 178.4 196.72C178.624 196.645 178.885 196.608 179.184 196.608C179.94 196.608 180.547 196.851 181.004 197.336C181.461 197.812 181.69 198.489 181.69 199.366V204H180.57V199.562C180.57 198.899 180.425 198.409 180.136 198.092C179.847 197.765 179.422 197.602 178.862 197.602C178.638 197.602 178.419 197.63 178.204 197.686C177.989 197.742 177.798 197.826 177.63 197.938C177.462 198.05 177.327 198.195 177.224 198.372C177.121 198.549 177.07 198.755 177.07 198.988V204H175.95V193.64ZM189.903 204C189.464 204 189.151 203.888 188.965 203.664C188.778 203.44 188.661 203.16 188.615 202.824H188.545C188.386 203.244 188.129 203.575 187.775 203.818C187.429 204.051 186.963 204.168 186.375 204.168C185.619 204.168 185.017 203.972 184.569 203.58C184.121 203.188 183.897 202.651 183.897 201.97C183.897 201.298 184.139 200.78 184.625 200.416C185.119 200.052 185.913 199.87 187.005 199.87H188.545V199.156C188.545 198.624 188.395 198.227 188.097 197.966C187.798 197.695 187.373 197.56 186.823 197.56C186.337 197.56 185.941 197.658 185.633 197.854C185.325 198.041 185.077 198.297 184.891 198.624L184.135 198.064C184.228 197.877 184.354 197.695 184.513 197.518C184.671 197.341 184.867 197.187 185.101 197.056C185.334 196.916 185.6 196.809 185.899 196.734C186.197 196.65 186.529 196.608 186.893 196.608C187.742 196.608 188.414 196.823 188.909 197.252C189.413 197.681 189.665 198.279 189.665 199.044V203.02H190.673V204H189.903ZM186.571 203.23C186.86 203.23 187.121 203.197 187.355 203.132C187.597 203.057 187.807 202.964 187.985 202.852C188.162 202.731 188.297 202.591 188.391 202.432C188.493 202.264 188.545 202.087 188.545 201.9V200.71H187.005C186.333 200.71 185.843 200.803 185.535 200.99C185.227 201.177 185.073 201.447 185.073 201.802V202.096C185.073 202.469 185.203 202.754 185.465 202.95C185.735 203.137 186.104 203.23 186.571 203.23ZM192.445 203.048H194.559V197.728H192.445V196.776H195.679V198.596H195.749C195.899 198.027 196.179 197.583 196.589 197.266C197.009 196.939 197.541 196.776 198.185 196.776H199.193V197.896H197.835C197.191 197.896 196.669 198.083 196.267 198.456C195.875 198.829 195.679 199.319 195.679 199.926V203.048H198.479V204H192.445V203.048ZM202.632 199.646C202.632 198.965 202.706 198.311 202.856 197.686C203.014 197.051 203.224 196.463 203.486 195.922C203.756 195.381 204.069 194.895 204.424 194.466C204.778 194.027 205.152 193.659 205.544 193.36H206.678C206.267 193.668 205.88 194.027 205.516 194.438C205.161 194.839 204.844 195.283 204.564 195.768C204.293 196.244 204.078 196.762 203.92 197.322C203.761 197.873 203.682 198.447 203.682 199.044V200.248C203.682 200.845 203.761 201.424 203.92 201.984C204.078 202.535 204.293 203.053 204.564 203.538C204.844 204.014 205.161 204.453 205.516 204.854C205.88 205.265 206.267 205.624 206.678 205.932H205.544C205.152 205.643 204.778 205.279 204.424 204.84C204.069 204.401 203.756 203.911 203.486 203.37C203.224 202.829 203.014 202.245 202.856 201.62C202.706 200.985 202.632 200.327 202.632 199.646ZM215.674 204H209.15V202.796L212.412 199.856C212.888 199.427 213.28 198.988 213.588 198.54C213.896 198.083 214.05 197.602 214.05 197.098V196.93C214.05 196.342 213.896 195.889 213.588 195.572C213.28 195.245 212.823 195.082 212.216 195.082C211.619 195.082 211.157 195.236 210.83 195.544C210.513 195.843 210.275 196.244 210.116 196.748L209.066 196.356C209.16 196.067 209.286 195.787 209.444 195.516C209.612 195.236 209.822 194.989 210.074 194.774C210.326 194.559 210.63 194.387 210.984 194.256C211.348 194.125 211.768 194.06 212.244 194.06C212.73 194.06 213.159 194.13 213.532 194.27C213.915 194.41 214.232 194.606 214.484 194.858C214.746 195.11 214.942 195.409 215.072 195.754C215.212 196.099 215.282 196.477 215.282 196.888C215.282 197.261 215.226 197.611 215.114 197.938C215.012 198.265 214.862 198.577 214.666 198.876C214.48 199.175 214.251 199.469 213.98 199.758C213.719 200.038 213.425 200.318 213.098 200.598L210.368 202.978H215.674V204ZM223.565 195.25H219.197L218.917 198.988H219.015C219.257 198.661 219.528 198.405 219.827 198.218C220.125 198.022 220.536 197.924 221.059 197.924C221.488 197.924 221.88 197.994 222.235 198.134C222.599 198.265 222.911 198.461 223.173 198.722C223.434 198.983 223.639 199.301 223.789 199.674C223.938 200.038 224.013 200.458 224.013 200.934C224.013 201.41 223.938 201.849 223.789 202.25C223.639 202.642 223.42 202.983 223.131 203.272C222.841 203.552 222.491 203.771 222.081 203.93C221.67 204.089 221.203 204.168 220.681 204.168C220.27 204.168 219.901 204.121 219.575 204.028C219.257 203.935 218.973 203.809 218.721 203.65C218.478 203.491 218.263 203.314 218.077 203.118C217.89 202.922 217.722 202.717 217.573 202.502L218.455 201.83C218.585 202.026 218.716 202.203 218.847 202.362C218.987 202.521 219.145 202.661 219.323 202.782C219.5 202.894 219.701 202.983 219.925 203.048C220.149 203.113 220.41 203.146 220.709 203.146C221.381 203.146 221.894 202.964 222.249 202.6C222.613 202.236 222.795 201.732 222.795 201.088V200.976C222.795 200.332 222.613 199.828 222.249 199.464C221.885 199.1 221.362 198.918 220.681 198.918C220.214 198.918 219.85 198.997 219.589 199.156C219.337 199.315 219.103 199.511 218.889 199.744L217.895 199.604L218.245 194.228H223.565V195.25ZM229.145 204.168C228.548 204.168 228.035 204.056 227.605 203.832C227.176 203.599 226.821 203.267 226.541 202.838C226.261 202.409 226.056 201.881 225.925 201.256C225.795 200.631 225.729 199.917 225.729 199.114C225.729 198.321 225.795 197.611 225.925 196.986C226.056 196.351 226.261 195.819 226.541 195.39C226.821 194.961 227.176 194.634 227.605 194.41C228.035 194.177 228.548 194.06 229.145 194.06C229.743 194.06 230.256 194.177 230.685 194.41C231.115 194.634 231.469 194.961 231.749 195.39C232.029 195.819 232.235 196.351 232.365 196.986C232.496 197.611 232.561 198.321 232.561 199.114C232.561 199.917 232.496 200.631 232.365 201.256C232.235 201.881 232.029 202.409 231.749 202.838C231.469 203.267 231.115 203.599 230.685 203.832C230.256 204.056 229.743 204.168 229.145 204.168ZM229.145 203.146C229.537 203.146 229.873 203.071 230.153 202.922C230.433 202.763 230.657 202.544 230.825 202.264C231.003 201.984 231.133 201.648 231.217 201.256C231.301 200.855 231.343 200.407 231.343 199.912V198.316C231.343 197.831 231.301 197.387 231.217 196.986C231.133 196.585 231.003 196.244 230.825 195.964C230.657 195.684 230.433 195.469 230.153 195.32C229.873 195.161 229.537 195.082 229.145 195.082C228.753 195.082 228.417 195.161 228.137 195.32C227.857 195.469 227.629 195.684 227.451 195.964C227.283 196.244 227.157 196.585 227.073 196.986C226.989 197.387 226.947 197.831 226.947 198.316V199.912C226.947 200.407 226.989 200.855 227.073 201.256C227.157 201.648 227.283 201.984 227.451 202.264C227.629 202.544 227.857 202.763 228.137 202.922C228.417 203.071 228.753 203.146 229.145 203.146ZM229.145 199.94C228.819 199.94 228.59 199.875 228.459 199.744C228.338 199.613 228.277 199.455 228.277 199.268V198.96C228.277 198.773 228.338 198.615 228.459 198.484C228.59 198.353 228.819 198.288 229.145 198.288C229.472 198.288 229.696 198.353 229.817 198.484C229.948 198.615 230.013 198.773 230.013 198.96V199.268C230.013 199.455 229.948 199.613 229.817 199.744C229.696 199.875 229.472 199.94 229.145 199.94ZM238.87 199.646C238.87 200.327 238.791 200.985 238.632 201.62C238.483 202.245 238.273 202.829 238.002 203.37C237.741 203.911 237.433 204.401 237.078 204.84C236.723 205.279 236.35 205.643 235.958 205.932H234.824C235.225 205.624 235.608 205.265 235.972 204.854C236.336 204.453 236.653 204.014 236.924 203.538C237.204 203.053 237.423 202.535 237.582 201.984C237.741 201.424 237.82 200.845 237.82 200.248V199.044C237.82 198.447 237.741 197.873 237.582 197.322C237.423 196.762 237.204 196.244 236.924 195.768C236.653 195.283 236.336 194.839 235.972 194.438C235.608 194.027 235.225 193.668 234.824 193.36H235.958C236.35 193.659 236.723 194.027 237.078 194.466C237.433 194.895 237.741 195.381 238.002 195.922C238.273 196.463 238.483 197.051 238.632 197.686C238.791 198.311 238.87 198.965 238.87 199.646Z" fill="#E98C00"/>
<line y1="218.5" x2="296" y2="218.5" stroke="black" stroke-opacity="0.2"/>
<line x1="0.5" y1="179" x2="0.499998" y2="218" stroke="black" stroke-opacity="0.2"/>
<line x1="295.678" y1="179" x2="295.678" y2="218" stroke="black" stroke-opacity="0.2"/>
<path d="M300 199H304C317.255 199 328 188.255 328 175V56C328 42.7452 317.255 32 304 32H172C158.745 32 148 42.7452 148 56V95" stroke="#CECCCC" stroke-width="3" stroke-linecap="round" stroke-linejoin="bevel"/>
<rect width="296" height="40" transform="translate(0 219)" fill="white"/>
<path d="M11.372 244V236.776H12.492V237.952H12.548C12.6227 237.775 12.716 237.607 12.828 237.448C12.94 237.28 13.0753 237.135 13.234 237.014C13.402 236.893 13.598 236.795 13.822 236.72C14.046 236.645 14.3073 236.608 14.606 236.608C15.362 236.608 15.9687 236.851 16.426 237.336C16.8833 237.812 17.112 238.489 17.112 239.366V244H15.992V239.562C15.992 238.899 15.8473 238.409 15.558 238.092C15.2687 237.765 14.844 237.602 14.284 237.602C14.06 237.602 13.8407 237.63 13.626 237.686C13.4113 237.742 13.22 237.826 13.052 237.938C12.884 238.05 12.7487 238.195 12.646 238.372C12.5433 238.549 12.492 238.755 12.492 238.988V244H11.372ZM25.3245 244C24.8859 244 24.5732 243.888 24.3865 243.664C24.1999 243.44 24.0832 243.16 24.0365 242.824H23.9665C23.8079 243.244 23.5512 243.575 23.1965 243.818C22.8512 244.051 22.3845 244.168 21.7965 244.168C21.0405 244.168 20.4385 243.972 19.9905 243.58C19.5425 243.188 19.3185 242.651 19.3185 241.97C19.3185 241.298 19.5612 240.78 20.0465 240.416C20.5412 240.052 21.3345 239.87 22.4265 239.87H23.9665V239.156C23.9665 238.624 23.8172 238.227 23.5185 237.966C23.2199 237.695 22.7952 237.56 22.2445 237.56C21.7592 237.56 21.3625 237.658 21.0545 237.854C20.7465 238.041 20.4992 238.297 20.3125 238.624L19.5565 238.064C19.6499 237.877 19.7759 237.695 19.9345 237.518C20.0932 237.341 20.2892 237.187 20.5225 237.056C20.7559 236.916 21.0219 236.809 21.3205 236.734C21.6192 236.65 21.9505 236.608 22.3145 236.608C23.1639 236.608 23.8359 236.823 24.3305 237.252C24.8345 237.681 25.0865 238.279 25.0865 239.044V243.02H26.0945V244H25.3245ZM21.9925 243.23C22.2819 243.23 22.5432 243.197 22.7765 243.132C23.0192 243.057 23.2292 242.964 23.4065 242.852C23.5839 242.731 23.7192 242.591 23.8125 242.432C23.9152 242.264 23.9665 242.087 23.9665 241.9V240.71H22.4265C21.7545 240.71 21.2645 240.803 20.9565 240.99C20.6485 241.177 20.4945 241.447 20.4945 241.802V242.096C20.4945 242.469 20.6252 242.754 20.8865 242.95C21.1572 243.137 21.5259 243.23 21.9925 243.23ZM27.5451 244V236.776H28.5811V237.616H28.6371C28.7491 237.336 28.9077 237.098 29.1131 236.902C29.3184 236.706 29.6217 236.608 30.0231 236.608C30.4431 236.608 30.7557 236.715 30.9611 236.93C31.1664 237.135 31.2924 237.406 31.3391 237.742H31.3811C31.5117 237.415 31.6984 237.145 31.9411 236.93C32.1837 236.715 32.5197 236.608 32.9491 236.608C33.5371 236.608 33.9291 236.813 34.1251 237.224C34.3304 237.635 34.4331 238.223 34.4331 238.988V244H33.3971V239.17C33.3971 238.554 33.3317 238.129 33.2011 237.896C33.0797 237.653 32.8511 237.532 32.5151 237.532C32.2164 237.532 31.9737 237.63 31.7871 237.826C31.6004 238.013 31.5071 238.302 31.5071 238.694V244H30.4711V239.17C30.4711 238.554 30.4057 238.129 30.2751 237.896C30.1537 237.653 29.9297 237.532 29.6031 237.532C29.3044 237.532 29.0571 237.63 28.8611 237.826C28.6744 238.013 28.5811 238.302 28.5811 238.694V244H27.5451ZM39.5096 244.168C38.9869 244.168 38.5156 244.079 38.0956 243.902C37.6849 243.725 37.3303 243.473 37.0316 243.146C36.7423 242.81 36.5183 242.413 36.3596 241.956C36.2009 241.489 36.1216 240.971 36.1216 240.402C36.1216 239.823 36.2009 239.301 36.3596 238.834C36.5276 238.367 36.7563 237.971 37.0456 237.644C37.3349 237.308 37.6803 237.051 38.0816 236.874C38.4923 236.697 38.9449 236.608 39.4396 236.608C39.9249 236.608 40.3636 236.697 40.7556 236.874C41.1569 237.051 41.4976 237.299 41.7776 237.616C42.0576 237.924 42.2723 238.293 42.4216 238.722C42.5709 239.151 42.6456 239.623 42.6456 240.136V240.668H37.2976V241.004C37.2976 241.321 37.3489 241.615 37.4516 241.886C37.5543 242.157 37.6989 242.39 37.8856 242.586C38.0816 242.782 38.3149 242.936 38.5856 243.048C38.8656 243.151 39.1736 243.202 39.5096 243.202C39.9949 243.202 40.4149 243.09 40.7696 242.866C41.1243 242.642 41.3949 242.334 41.5816 241.942L42.4076 242.502C42.1929 242.987 41.8336 243.389 41.3296 243.706C40.8349 244.014 40.2283 244.168 39.5096 244.168ZM39.4396 237.532C39.1316 237.532 38.8469 237.588 38.5856 237.7C38.3243 237.812 38.0956 237.966 37.8996 238.162C37.7129 238.358 37.5636 238.591 37.4516 238.862C37.3489 239.123 37.2976 239.413 37.2976 239.73V239.828H41.4416V239.674C41.4416 239.357 41.3903 239.067 41.2876 238.806C41.1943 238.545 41.0589 238.321 40.8816 238.134C40.7136 237.938 40.5036 237.789 40.2516 237.686C40.0089 237.583 39.7383 237.532 39.4396 237.532Z" fill="black"/>
<path d="M144.486 244L141.896 236.776H143.03L144.066 239.8L145.186 243.062H145.242L146.362 239.8L147.398 236.776H148.504L145.914 244H144.486ZM156.325 244C155.886 244 155.573 243.888 155.387 243.664C155.2 243.44 155.083 243.16 155.037 242.824H154.967C154.808 243.244 154.551 243.575 154.197 243.818C153.851 244.051 153.385 244.168 152.797 244.168C152.041 244.168 151.439 243.972 150.991 243.58C150.543 243.188 150.319 242.651 150.319 241.97C150.319 241.298 150.561 240.78 151.047 240.416C151.541 240.052 152.335 239.87 153.427 239.87H154.967V239.156C154.967 238.624 154.817 238.227 154.519 237.966C154.22 237.695 153.795 237.56 153.245 237.56C152.759 237.56 152.363 237.658 152.055 237.854C151.747 238.041 151.499 238.297 151.313 238.624L150.557 238.064C150.65 237.877 150.776 237.695 150.935 237.518C151.093 237.341 151.289 237.187 151.523 237.056C151.756 236.916 152.022 236.809 152.321 236.734C152.619 236.65 152.951 236.608 153.315 236.608C154.164 236.608 154.836 236.823 155.331 237.252C155.835 237.681 156.087 238.279 156.087 239.044V243.02H157.095V244H156.325ZM152.993 243.23C153.282 243.23 153.543 243.197 153.777 243.132C154.019 243.057 154.229 242.964 154.407 242.852C154.584 242.731 154.719 242.591 154.813 242.432C154.915 242.264 154.967 242.087 154.967 241.9V240.71H153.427C152.755 240.71 152.265 240.803 151.957 240.99C151.649 241.177 151.495 241.447 151.495 241.802V242.096C151.495 242.469 151.625 242.754 151.887 242.95C152.157 243.137 152.526 243.23 152.993 243.23ZM158.867 243.048H160.981V237.728H158.867V236.776H162.101V238.596H162.171C162.32 238.027 162.6 237.583 163.011 237.266C163.431 236.939 163.963 236.776 164.607 236.776H165.615V237.896H164.257C163.613 237.896 163.09 238.083 162.689 238.456C162.297 238.829 162.101 239.319 162.101 239.926V243.048H164.901V244H158.867V243.048ZM170.636 244.168C170.113 244.168 169.646 244.079 169.236 243.902C168.834 243.715 168.494 243.459 168.214 243.132C167.934 242.805 167.719 242.409 167.57 241.942C167.43 241.475 167.36 240.957 167.36 240.388C167.36 239.819 167.434 239.301 167.584 238.834C167.733 238.367 167.948 237.971 168.228 237.644C168.508 237.308 168.848 237.051 169.25 236.874C169.651 236.697 170.108 236.608 170.622 236.608C171.322 236.608 171.891 236.762 172.33 237.07C172.768 237.378 173.09 237.779 173.296 238.274L172.4 238.75C172.269 238.377 172.05 238.087 171.742 237.882C171.443 237.677 171.07 237.574 170.622 237.574C170.295 237.574 170.001 237.63 169.74 237.742C169.488 237.845 169.273 237.994 169.096 238.19C168.918 238.386 168.783 238.619 168.69 238.89C168.606 239.161 168.564 239.455 168.564 239.772V241.004C168.564 241.321 168.606 241.615 168.69 241.886C168.783 242.157 168.918 242.39 169.096 242.586C169.273 242.782 169.492 242.936 169.754 243.048C170.015 243.151 170.314 243.202 170.65 243.202C171.135 243.202 171.536 243.09 171.854 242.866C172.171 242.642 172.423 242.334 172.61 241.942L173.408 242.488C173.193 242.973 172.857 243.375 172.4 243.692C171.952 244.009 171.364 244.168 170.636 244.168ZM175.95 233.64H177.07V237.952H177.126C177.201 237.775 177.294 237.607 177.406 237.448C177.518 237.28 177.653 237.135 177.812 237.014C177.98 236.893 178.176 236.795 178.4 236.72C178.624 236.645 178.885 236.608 179.184 236.608C179.94 236.608 180.547 236.851 181.004 237.336C181.461 237.812 181.69 238.489 181.69 239.366V244H180.57V239.562C180.57 238.899 180.425 238.409 180.136 238.092C179.847 237.765 179.422 237.602 178.862 237.602C178.638 237.602 178.419 237.63 178.204 237.686C177.989 237.742 177.798 237.826 177.63 237.938C177.462 238.05 177.327 238.195 177.224 238.372C177.121 238.549 177.07 238.755 177.07 238.988V244H175.95V233.64ZM189.903 244C189.464 244 189.151 243.888 188.965 243.664C188.778 243.44 188.661 243.16 188.615 242.824H188.545C188.386 243.244 188.129 243.575 187.775 243.818C187.429 244.051 186.963 244.168 186.375 244.168C185.619 244.168 185.017 243.972 184.569 243.58C184.121 243.188 183.897 242.651 183.897 241.97C183.897 241.298 184.139 240.78 184.625 240.416C185.119 240.052 185.913 239.87 187.005 239.87H188.545V239.156C188.545 238.624 188.395 238.227 188.097 237.966C187.798 237.695 187.373 237.56 186.823 237.56C186.337 237.56 185.941 237.658 185.633 237.854C185.325 238.041 185.077 238.297 184.891 238.624L184.135 238.064C184.228 237.877 184.354 237.695 184.513 237.518C184.671 237.341 184.867 237.187 185.101 237.056C185.334 236.916 185.6 236.809 185.899 236.734C186.197 236.65 186.529 236.608 186.893 236.608C187.742 236.608 188.414 236.823 188.909 237.252C189.413 237.681 189.665 238.279 189.665 239.044V243.02H190.673V244H189.903ZM186.571 243.23C186.86 243.23 187.121 243.197 187.355 243.132C187.597 243.057 187.807 242.964 187.985 242.852C188.162 242.731 188.297 242.591 188.391 242.432C188.493 242.264 188.545 242.087 188.545 241.9V240.71H187.005C186.333 240.71 185.843 240.803 185.535 240.99C185.227 241.177 185.073 241.447 185.073 241.802V242.096C185.073 242.469 185.203 242.754 185.465 242.95C185.735 243.137 186.104 243.23 186.571 243.23ZM192.445 243.048H194.559V237.728H192.445V236.776H195.679V238.596H195.749C195.899 238.027 196.179 237.583 196.589 237.266C197.009 236.939 197.541 236.776 198.185 236.776H199.193V237.896H197.835C197.191 237.896 196.669 238.083 196.267 238.456C195.875 238.829 195.679 239.319 195.679 239.926V243.048H198.479V244H192.445V243.048ZM202.632 239.646C202.632 238.965 202.706 238.311 202.856 237.686C203.014 237.051 203.224 236.463 203.486 235.922C203.756 235.381 204.069 234.895 204.424 234.466C204.778 234.027 205.152 233.659 205.544 233.36H206.678C206.267 233.668 205.88 234.027 205.516 234.438C205.161 234.839 204.844 235.283 204.564 235.768C204.293 236.244 204.078 236.762 203.92 237.322C203.761 237.873 203.682 238.447 203.682 239.044V240.248C203.682 240.845 203.761 241.424 203.92 241.984C204.078 242.535 204.293 243.053 204.564 243.538C204.844 244.014 205.161 244.453 205.516 244.854C205.88 245.265 206.267 245.624 206.678 245.932H205.544C205.152 245.643 204.778 245.279 204.424 244.84C204.069 244.401 203.756 243.911 203.486 243.37C203.224 242.829 203.014 242.245 202.856 241.62C202.706 240.985 202.632 240.327 202.632 239.646ZM215.674 244H209.15V242.796L212.412 239.856C212.888 239.427 213.28 238.988 213.588 238.54C213.896 238.083 214.05 237.602 214.05 237.098V236.93C214.05 236.342 213.896 235.889 213.588 235.572C213.28 235.245 212.823 235.082 212.216 235.082C211.619 235.082 211.157 235.236 210.83 235.544C210.513 235.843 210.275 236.244 210.116 236.748L209.066 236.356C209.16 236.067 209.286 235.787 209.444 235.516C209.612 235.236 209.822 234.989 210.074 234.774C210.326 234.559 210.63 234.387 210.984 234.256C211.348 234.125 211.768 234.06 212.244 234.06C212.73 234.06 213.159 234.13 213.532 234.27C213.915 234.41 214.232 234.606 214.484 234.858C214.746 235.11 214.942 235.409 215.072 235.754C215.212 236.099 215.282 236.477 215.282 236.888C215.282 237.261 215.226 237.611 215.114 237.938C215.012 238.265 214.862 238.577 214.666 238.876C214.48 239.175 214.251 239.469 213.98 239.758C213.719 240.038 213.425 240.318 213.098 240.598L210.368 242.978H215.674V244ZM223.565 235.25H219.197L218.917 238.988H219.015C219.257 238.661 219.528 238.405 219.827 238.218C220.125 238.022 220.536 237.924 221.059 237.924C221.488 237.924 221.88 237.994 222.235 238.134C222.599 238.265 222.911 238.461 223.173 238.722C223.434 238.983 223.639 239.301 223.789 239.674C223.938 240.038 224.013 240.458 224.013 240.934C224.013 241.41 223.938 241.849 223.789 242.25C223.639 242.642 223.42 242.983 223.131 243.272C222.841 243.552 222.491 243.771 222.081 243.93C221.67 244.089 221.203 244.168 220.681 244.168C220.27 244.168 219.901 244.121 219.575 244.028C219.257 243.935 218.973 243.809 218.721 243.65C218.478 243.491 218.263 243.314 218.077 243.118C217.89 242.922 217.722 242.717 217.573 242.502L218.455 241.83C218.585 242.026 218.716 242.203 218.847 242.362C218.987 242.521 219.145 242.661 219.323 242.782C219.5 242.894 219.701 242.983 219.925 243.048C220.149 243.113 220.41 243.146 220.709 243.146C221.381 243.146 221.894 242.964 222.249 242.6C222.613 242.236 222.795 241.732 222.795 241.088V240.976C222.795 240.332 222.613 239.828 222.249 239.464C221.885 239.1 221.362 238.918 220.681 238.918C220.214 238.918 219.85 238.997 219.589 239.156C219.337 239.315 219.103 239.511 218.889 239.744L217.895 239.604L218.245 234.228H223.565V235.25ZM229.145 244.168C228.548 244.168 228.035 244.056 227.605 243.832C227.176 243.599 226.821 243.267 226.541 242.838C226.261 242.409 226.056 241.881 225.925 241.256C225.795 240.631 225.729 239.917 225.729 239.114C225.729 238.321 225.795 237.611 225.925 236.986C226.056 236.351 226.261 235.819 226.541 235.39C226.821 234.961 227.176 234.634 227.605 234.41C228.035 234.177 228.548 234.06 229.145 234.06C229.743 234.06 230.256 234.177 230.685 234.41C231.115 234.634 231.469 234.961 231.749 235.39C232.029 235.819 232.235 236.351 232.365 236.986C232.496 237.611 232.561 238.321 232.561 239.114C232.561 239.917 232.496 240.631 232.365 241.256C232.235 241.881 232.029 242.409 231.749 242.838C231.469 243.267 231.115 243.599 230.685 243.832C230.256 244.056 229.743 244.168 229.145 244.168ZM229.145 243.146C229.537 243.146 229.873 243.071 230.153 242.922C230.433 242.763 230.657 242.544 230.825 242.264C231.003 241.984 231.133 241.648 231.217 241.256C231.301 240.855 231.343 240.407 231.343 239.912V238.316C231.343 237.831 231.301 237.387 231.217 236.986C231.133 236.585 231.003 236.244 230.825 235.964C230.657 235.684 230.433 235.469 230.153 235.32C229.873 235.161 229.537 235.082 229.145 235.082C228.753 235.082 228.417 235.161 228.137 235.32C227.857 235.469 227.629 235.684 227.451 235.964C227.283 236.244 227.157 236.585 227.073 236.986C226.989 237.387 226.947 237.831 226.947 238.316V239.912C226.947 240.407 226.989 240.855 227.073 241.256C227.157 241.648 227.283 241.984 227.451 242.264C227.629 242.544 227.857 242.763 228.137 242.922C228.417 243.071 228.753 243.146 229.145 243.146ZM229.145 239.94C228.819 239.94 228.59 239.875 228.459 239.744C228.338 239.613 228.277 239.455 228.277 239.268V238.96C228.277 238.773 228.338 238.615 228.459 238.484C228.59 238.353 228.819 238.288 229.145 238.288C229.472 238.288 229.696 238.353 229.817 238.484C229.948 238.615 230.013 238.773 230.013 238.96V239.268C230.013 239.455 229.948 239.613 229.817 239.744C229.696 239.875 229.472 239.94 229.145 239.94ZM238.87 239.646C238.87 240.327 238.791 240.985 238.632 241.62C238.483 242.245 238.273 242.829 238.002 243.37C237.741 243.911 237.433 244.401 237.078 244.84C236.723 245.279 236.35 245.643 235.958 245.932H234.824C235.225 245.624 235.608 245.265 235.972 244.854C236.336 244.453 236.653 244.014 236.924 243.538C237.204 243.053 237.423 242.535 237.582 241.984C237.741 241.424 237.82 240.845 237.82 240.248V239.044C237.82 238.447 237.741 237.873 237.582 237.322C237.423 236.762 237.204 236.244 236.924 235.768C236.653 235.283 236.336 234.839 235.972 234.438C235.608 234.027 235.225 233.668 234.824 233.36H235.958C236.35 233.659 236.723 234.027 237.078 234.466C237.433 234.895 237.741 235.381 238.002 235.922C238.273 236.463 238.483 237.051 238.632 237.686C238.791 238.311 238.87 238.965 238.87 239.646Z" fill="#E98C00"/>
<line y1="258.5" x2="296" y2="258.5" stroke="black" stroke-opacity="0.2"/>
<line x1="0.5" y1="219" x2="0.499998" y2="258" stroke="black" stroke-opacity="0.2"/>
<line x1="295.678" y1="219" x2="295.678" y2="258" stroke="black" stroke-opacity="0.2"/>
<rect width="296" height="40" transform="translate(0 259)" fill="white"/>
<rect width="296" height="40" transform="translate(0 259)" fill="white" fill-opacity="0.02"/>
<path d="M15.95 282.824H15.894C15.4273 283.72 14.6853 284.168 13.668 284.168C12.7813 284.168 12.086 283.837 11.582 283.174C11.0873 282.511 10.84 281.583 10.84 280.388C10.84 279.193 11.0873 278.265 11.582 277.602C12.086 276.939 12.7813 276.608 13.668 276.608C14.6853 276.608 15.4273 277.056 15.894 277.952H15.95V273.64H17.07V284H15.95V282.824ZM14.102 283.174C14.354 283.174 14.592 283.141 14.816 283.076C15.04 283.011 15.236 282.917 15.404 282.796C15.572 282.665 15.7027 282.511 15.796 282.334C15.8987 282.147 15.95 281.933 15.95 281.69V279.086C15.95 278.843 15.8987 278.633 15.796 278.456C15.7027 278.269 15.572 278.115 15.404 277.994C15.236 277.863 15.04 277.765 14.816 277.7C14.592 277.635 14.354 277.602 14.102 277.602C13.4487 277.602 12.94 277.803 12.576 278.204C12.2213 278.596 12.044 279.119 12.044 279.772V281.004C12.044 281.657 12.2213 282.185 12.576 282.586C12.94 282.978 13.4487 283.174 14.102 283.174ZM22.7205 284.168C22.1979 284.168 21.7265 284.079 21.3065 283.902C20.8959 283.725 20.5412 283.473 20.2425 283.146C19.9532 282.81 19.7292 282.413 19.5705 281.956C19.4119 281.489 19.3325 280.971 19.3325 280.402C19.3325 279.823 19.4119 279.301 19.5705 278.834C19.7385 278.367 19.9672 277.971 20.2565 277.644C20.5459 277.308 20.8912 277.051 21.2925 276.874C21.7032 276.697 22.1559 276.608 22.6505 276.608C23.1359 276.608 23.5745 276.697 23.9665 276.874C24.3679 277.051 24.7085 277.299 24.9885 277.616C25.2685 277.924 25.4832 278.293 25.6325 278.722C25.7819 279.151 25.8565 279.623 25.8565 280.136V280.668H20.5085V281.004C20.5085 281.321 20.5599 281.615 20.6625 281.886C20.7652 282.157 20.9099 282.39 21.0965 282.586C21.2925 282.782 21.5259 282.936 21.7965 283.048C22.0765 283.151 22.3845 283.202 22.7205 283.202C23.2059 283.202 23.6259 283.09 23.9805 282.866C24.3352 282.642 24.6059 282.334 24.7925 281.942L25.6185 282.502C25.4039 282.987 25.0445 283.389 24.5405 283.706C24.0459 284.014 23.4392 284.168 22.7205 284.168ZM22.6505 277.532C22.3425 277.532 22.0579 277.588 21.7965 277.7C21.5352 277.812 21.3065 277.966 21.1105 278.162C20.9239 278.358 20.7745 278.591 20.6625 278.862C20.5599 279.123 20.5085 279.413 20.5085 279.73V279.828H24.6525V279.674C24.6525 279.357 24.6012 279.067 24.4985 278.806C24.4052 278.545 24.2699 278.321 24.0925 278.134C23.9245 277.938 23.7145 277.789 23.4625 277.686C23.2199 277.583 22.9492 277.532 22.6505 277.532ZM31.0731 284.168C30.3171 284.168 29.6637 284.042 29.1131 283.79C28.5717 283.529 28.1097 283.183 27.7271 282.754L28.4831 282.096C28.8284 282.46 29.2064 282.74 29.6171 282.936C30.0277 283.132 30.5224 283.23 31.1011 283.23C31.6611 283.23 32.1184 283.132 32.4731 282.936C32.8371 282.731 33.0191 282.413 33.0191 281.984C33.0191 281.797 32.9817 281.643 32.9071 281.522C32.8417 281.391 32.7484 281.289 32.6271 281.214C32.5057 281.139 32.3704 281.083 32.2211 281.046C32.0717 280.999 31.9131 280.962 31.7451 280.934L30.6111 280.766C30.3591 280.729 30.0837 280.677 29.7851 280.612C29.4957 280.547 29.2297 280.444 28.9871 280.304C28.7444 280.155 28.5391 279.959 28.3711 279.716C28.2124 279.473 28.1331 279.156 28.1331 278.764C28.1331 278.4 28.2031 278.087 28.3431 277.826C28.4924 277.555 28.6977 277.331 28.9591 277.154C29.2204 276.967 29.5284 276.832 29.8831 276.748C30.2377 276.655 30.6251 276.608 31.0451 276.608C31.6984 276.608 32.2631 276.711 32.7391 276.916C33.2244 277.121 33.6397 277.406 33.9851 277.77L33.2571 278.456C33.1731 278.353 33.0657 278.251 32.9351 278.148C32.8137 278.036 32.6597 277.938 32.4731 277.854C32.2957 277.761 32.0857 277.686 31.8431 277.63C31.6004 277.574 31.3204 277.546 31.0031 277.546C30.4337 277.546 29.9951 277.644 29.6871 277.84C29.3884 278.036 29.2391 278.321 29.2391 278.694C29.2391 278.881 29.2717 279.039 29.3371 279.17C29.4117 279.291 29.5097 279.389 29.6311 279.464C29.7524 279.539 29.8877 279.599 30.0371 279.646C30.1957 279.683 30.3544 279.716 30.5131 279.744L31.6471 279.912C31.9084 279.949 32.1837 280.001 32.4731 280.066C32.7624 280.131 33.0284 280.239 33.2711 280.388C33.5137 280.528 33.7144 280.719 33.8731 280.962C34.0411 281.205 34.1251 281.522 34.1251 281.914C34.1251 282.633 33.8451 283.188 33.2851 283.58C32.7344 283.972 31.9971 284.168 31.0731 284.168ZM39.6356 284.168C39.1129 284.168 38.6463 284.079 38.2356 283.902C37.8343 283.715 37.4936 283.459 37.2136 283.132C36.9336 282.805 36.7189 282.409 36.5696 281.942C36.4296 281.475 36.3596 280.957 36.3596 280.388C36.3596 279.819 36.4343 279.301 36.5836 278.834C36.7329 278.367 36.9476 277.971 37.2276 277.644C37.5076 277.308 37.8483 277.051 38.2496 276.874C38.6509 276.697 39.1083 276.608 39.6216 276.608C40.3216 276.608 40.8909 276.762 41.3296 277.07C41.7683 277.378 42.0903 277.779 42.2956 278.274L41.3996 278.75C41.2689 278.377 41.0496 278.087 40.7416 277.882C40.4429 277.677 40.0696 277.574 39.6216 277.574C39.2949 277.574 39.0009 277.63 38.7396 277.742C38.4876 277.845 38.2729 277.994 38.0956 278.19C37.9183 278.386 37.7829 278.619 37.6896 278.89C37.6056 279.161 37.5636 279.455 37.5636 279.772V281.004C37.5636 281.321 37.6056 281.615 37.6896 281.886C37.7829 282.157 37.9183 282.39 38.0956 282.586C38.2729 282.782 38.4923 282.936 38.7536 283.048C39.0149 283.151 39.3136 283.202 39.6496 283.202C40.1349 283.202 40.5363 283.09 40.8536 282.866C41.1709 282.642 41.4229 282.334 41.6096 281.942L42.4076 282.488C42.1929 282.973 41.8569 283.375 41.3996 283.692C40.9516 284.009 40.3636 284.168 39.6356 284.168ZM44.6561 283.048H46.7701V277.728H44.6561V276.776H47.8901V278.596H47.9601C48.1095 278.027 48.3895 277.583 48.8001 277.266C49.2201 276.939 49.7521 276.776 50.3961 276.776H51.4041V277.896H50.0461C49.4021 277.896 48.8795 278.083 48.4781 278.456C48.0861 278.829 47.8901 279.319 47.8901 279.926V283.048H50.6901V284H44.6561V283.048ZM56.6207 275.18C56.294 275.18 56.0653 275.115 55.9347 274.984C55.804 274.844 55.7387 274.671 55.7387 274.466V274.242C55.7387 274.037 55.804 273.869 55.9347 273.738C56.0653 273.598 56.294 273.528 56.6207 273.528C56.9473 273.528 57.176 273.598 57.3067 273.738C57.4373 273.869 57.5027 274.037 57.5027 274.242V274.466C57.5027 274.671 57.4373 274.844 57.3067 274.984C57.176 275.115 56.9473 275.18 56.6207 275.18ZM53.4567 283.048H56.0607V277.728H53.4567V276.776H57.1807V283.048H59.6167V284H53.4567V283.048ZM61.6972 276.776H62.8172V277.952H62.8732C63.3399 277.056 64.0819 276.608 65.0992 276.608C65.9859 276.608 66.6765 276.939 67.1712 277.602C67.6752 278.265 67.9272 279.193 67.9272 280.388C67.9272 281.583 67.6752 282.511 67.1712 283.174C66.6765 283.837 65.9859 284.168 65.0992 284.168C64.0819 284.168 63.3399 283.72 62.8732 282.824H62.8172V286.8H61.6972V276.776ZM64.6652 283.174C65.3185 283.174 65.8225 282.978 66.1772 282.586C66.5412 282.185 66.7232 281.657 66.7232 281.004V279.772C66.7232 279.119 66.5412 278.596 66.1772 278.204C65.8225 277.803 65.3185 277.602 64.6652 277.602C64.4132 277.602 64.1752 277.635 63.9512 277.7C63.7272 277.765 63.5312 277.863 63.3632 277.994C63.1952 278.115 63.0599 278.269 62.9572 278.456C62.8639 278.633 62.8172 278.843 62.8172 279.086V281.69C62.8172 281.933 62.8639 282.147 62.9572 282.334C63.0599 282.511 63.1952 282.665 63.3632 282.796C63.5312 282.917 63.7272 283.011 63.9512 283.076C64.1752 283.141 64.4132 283.174 64.6652 283.174ZM73.3117 284C72.7611 284 72.3551 283.846 72.0937 283.538C71.8417 283.23 71.7157 282.833 71.7157 282.348V277.728H69.3077V276.776H71.0997C71.3424 276.776 71.5104 276.729 71.6037 276.636C71.7064 276.533 71.7577 276.361 71.7577 276.118V274.228H72.8357V276.776H76.1257V277.728H72.8357V283.048H76.1257V284H73.3117ZM81.8043 275.18C81.4776 275.18 81.2489 275.115 81.1183 274.984C80.9876 274.844 80.9223 274.671 80.9223 274.466V274.242C80.9223 274.037 80.9876 273.869 81.1183 273.738C81.2489 273.598 81.4776 273.528 81.8043 273.528C82.1309 273.528 82.3596 273.598 82.4903 273.738C82.6209 273.869 82.6863 274.037 82.6863 274.242V274.466C82.6863 274.671 82.6209 274.844 82.4903 274.984C82.3596 275.115 82.1309 275.18 81.8043 275.18ZM78.6403 283.048H81.2443V277.728H78.6403V276.776H82.3643V283.048H84.8003V284H78.6403V283.048ZM89.7508 284.168C89.2468 284.168 88.7894 284.079 88.3788 283.902C87.9774 283.725 87.6321 283.473 87.3428 283.146C87.0628 282.81 86.8481 282.413 86.6988 281.956C86.5494 281.489 86.4748 280.967 86.4748 280.388C86.4748 279.819 86.5494 279.301 86.6988 278.834C86.8481 278.367 87.0628 277.971 87.3428 277.644C87.6321 277.308 87.9774 277.051 88.3788 276.874C88.7894 276.697 89.2468 276.608 89.7508 276.608C90.2548 276.608 90.7074 276.697 91.1088 276.874C91.5194 277.051 91.8648 277.308 92.1448 277.644C92.4341 277.971 92.6534 278.367 92.8028 278.834C92.9521 279.301 93.0268 279.819 93.0268 280.388C93.0268 280.967 92.9521 281.489 92.8028 281.956C92.6534 282.413 92.4341 282.81 92.1448 283.146C91.8648 283.473 91.5194 283.725 91.1088 283.902C90.7074 284.079 90.2548 284.168 89.7508 284.168ZM89.7508 283.202C90.3761 283.202 90.8801 283.015 91.2628 282.642C91.6454 282.269 91.8368 281.69 91.8368 280.906V279.87C91.8368 279.086 91.6454 278.507 91.2628 278.134C90.8801 277.761 90.3761 277.574 89.7508 277.574C89.1254 277.574 88.6214 277.761 88.2388 278.134C87.8561 278.507 87.6648 279.086 87.6648 279.87V280.906C87.6648 281.69 87.8561 282.269 88.2388 282.642C88.6214 283.015 89.1254 283.202 89.7508 283.202ZM95.3173 284V276.776H96.4373V277.952H96.4933C96.568 277.775 96.6613 277.607 96.7733 277.448C96.8853 277.28 97.0206 277.135 97.1793 277.014C97.3473 276.893 97.5433 276.795 97.7673 276.72C97.9913 276.645 98.2526 276.608 98.5513 276.608C99.3073 276.608 99.914 276.851 100.371 277.336C100.829 277.812 101.057 278.489 101.057 279.366V284H99.9373V279.562C99.9373 278.899 99.7926 278.409 99.5033 278.092C99.214 277.765 98.7893 277.602 98.2293 277.602C98.0053 277.602 97.786 277.63 97.5713 277.686C97.3566 277.742 97.1653 277.826 96.9973 277.938C96.8293 278.05 96.694 278.195 96.5913 278.372C96.4886 278.549 96.4373 278.755 96.4373 278.988V284H95.3173Z" fill="black"/>
<path d="M145.55 284C144.999 284 144.593 283.846 144.332 283.538C144.08 283.23 143.954 282.833 143.954 282.348V277.728H141.546V276.776H143.338C143.581 276.776 143.749 276.729 143.842 276.636C143.945 276.533 143.996 276.361 143.996 276.118V274.228H145.074V276.776H148.364V277.728H145.074V283.048H148.364V284H145.55ZM153.721 284.168C153.198 284.168 152.727 284.079 152.307 283.902C151.896 283.725 151.541 283.473 151.243 283.146C150.953 282.81 150.729 282.413 150.571 281.956C150.412 281.489 150.333 280.971 150.333 280.402C150.333 279.823 150.412 279.301 150.571 278.834C150.739 278.367 150.967 277.971 151.257 277.644C151.546 277.308 151.891 277.051 152.293 276.874C152.703 276.697 153.156 276.608 153.651 276.608C154.136 276.608 154.575 276.697 154.967 276.874C155.368 277.051 155.709 277.299 155.989 277.616C156.269 277.924 156.483 278.293 156.633 278.722C156.782 279.151 156.857 279.623 156.857 280.136V280.668H151.509V281.004C151.509 281.321 151.56 281.615 151.663 281.886C151.765 282.157 151.91 282.39 152.097 282.586C152.293 282.782 152.526 282.936 152.797 283.048C153.077 283.151 153.385 283.202 153.721 283.202C154.206 283.202 154.626 283.09 154.981 282.866C155.335 282.642 155.606 282.334 155.793 281.942L156.619 282.502C156.404 282.987 156.045 283.389 155.541 283.706C155.046 284.014 154.439 284.168 153.721 284.168ZM153.651 277.532C153.343 277.532 153.058 277.588 152.797 277.7C152.535 277.812 152.307 277.966 152.111 278.162C151.924 278.358 151.775 278.591 151.663 278.862C151.56 279.123 151.509 279.413 151.509 279.73V279.828H155.653V279.674C155.653 279.357 155.601 279.067 155.499 278.806C155.405 278.545 155.27 278.321 155.093 278.134C154.925 277.938 154.715 277.789 154.463 277.686C154.22 277.583 153.949 277.532 153.651 277.532ZM158.643 284L161.331 280.332L158.713 276.776H160.057L161.149 278.302L162.017 279.506H162.073L162.913 278.302L163.991 276.776H165.279L162.633 280.318L165.349 284H164.005L162.787 282.306L161.961 281.158H161.905L161.107 282.306L159.931 284H158.643ZM170.734 284C170.183 284 169.777 283.846 169.516 283.538C169.264 283.23 169.138 282.833 169.138 282.348V277.728H166.73V276.776H168.522C168.764 276.776 168.932 276.729 169.026 276.636C169.128 276.533 169.18 276.361 169.18 276.118V274.228H170.258V276.776H173.548V277.728H170.258V283.048H173.548V284H170.734Z" fill="#00D0AB"/>
<line y1="298.5" x2="296" y2="298.5" stroke="black" stroke-opacity="0.2"/>
<line x1="0.5" y1="259" x2="0.499998" y2="298" stroke="black" stroke-opacity="0.2"/>
<line x1="295.678" y1="259" x2="295.678" y2="298" stroke="black" stroke-opacity="0.2"/>
<rect width="296" height="40" transform="translate(0 299)" fill="white"/>
<rect width="296" height="40" transform="translate(0 299)" fill="white" fill-opacity="0.02"/>
<path d="M11.33 316.776H12.45V317.952H12.506C12.9727 317.056 13.7147 316.608 14.732 316.608C15.6187 316.608 16.3093 316.939 16.804 317.602C17.308 318.265 17.56 319.193 17.56 320.388C17.56 321.583 17.308 322.511 16.804 323.174C16.3093 323.837 15.6187 324.168 14.732 324.168C13.7147 324.168 12.9727 323.72 12.506 322.824H12.45V326.8H11.33V316.776ZM14.298 323.174C14.9513 323.174 15.4553 322.978 15.81 322.586C16.174 322.185 16.356 321.657 16.356 321.004V319.772C16.356 319.119 16.174 318.596 15.81 318.204C15.4553 317.803 14.9513 317.602 14.298 317.602C14.046 317.602 13.808 317.635 13.584 317.7C13.36 317.765 13.164 317.863 12.996 317.994C12.828 318.115 12.6927 318.269 12.59 318.456C12.4967 318.633 12.45 318.843 12.45 319.086V321.69C12.45 321.933 12.4967 322.147 12.59 322.334C12.6927 322.511 12.828 322.665 12.996 322.796C13.164 322.917 13.36 323.011 13.584 323.076C13.808 323.141 14.046 323.174 14.298 323.174ZM19.4725 323.048H21.5865V317.728H19.4725V316.776H22.7065V318.596H22.7765C22.9259 318.027 23.2059 317.583 23.6165 317.266C24.0365 316.939 24.5685 316.776 25.2125 316.776H26.2205V317.896H24.8625C24.2185 317.896 23.6959 318.083 23.2945 318.456C22.9025 318.829 22.7065 319.319 22.7065 319.926V323.048H25.5065V324H19.4725V323.048ZM31.4371 315.18C31.1104 315.18 30.8817 315.115 30.7511 314.984C30.6204 314.844 30.5551 314.671 30.5551 314.466V314.242C30.5551 314.037 30.6204 313.869 30.7511 313.738C30.8817 313.598 31.1104 313.528 31.4371 313.528C31.7637 313.528 31.9924 313.598 32.1231 313.738C32.2537 313.869 32.3191 314.037 32.3191 314.242V314.466C32.3191 314.671 32.2537 314.844 32.1231 314.984C31.9924 315.115 31.7637 315.18 31.4371 315.18ZM28.2731 323.048H30.8771V317.728H28.2731V316.776H31.9971V323.048H34.4331V324H28.2731V323.048ZM39.6356 324.168C39.1129 324.168 38.6463 324.079 38.2356 323.902C37.8343 323.715 37.4936 323.459 37.2136 323.132C36.9336 322.805 36.7189 322.409 36.5696 321.942C36.4296 321.475 36.3596 320.957 36.3596 320.388C36.3596 319.819 36.4343 319.301 36.5836 318.834C36.7329 318.367 36.9476 317.971 37.2276 317.644C37.5076 317.308 37.8483 317.051 38.2496 316.874C38.6509 316.697 39.1083 316.608 39.6216 316.608C40.3216 316.608 40.8909 316.762 41.3296 317.07C41.7683 317.378 42.0903 317.779 42.2956 318.274L41.3996 318.75C41.2689 318.377 41.0496 318.087 40.7416 317.882C40.4429 317.677 40.0696 317.574 39.6216 317.574C39.2949 317.574 39.0009 317.63 38.7396 317.742C38.4876 317.845 38.2729 317.994 38.0956 318.19C37.9183 318.386 37.7829 318.619 37.6896 318.89C37.6056 319.161 37.5636 319.455 37.5636 319.772V321.004C37.5636 321.321 37.6056 321.615 37.6896 321.886C37.7829 322.157 37.9183 322.39 38.0956 322.586C38.2729 322.782 38.4923 322.936 38.7536 323.048C39.0149 323.151 39.3136 323.202 39.6496 323.202C40.1349 323.202 40.5363 323.09 40.8536 322.866C41.1709 322.642 41.4229 322.334 41.6096 321.942L42.4076 322.488C42.1929 322.973 41.8569 323.375 41.3996 323.692C40.9516 324.009 40.3636 324.168 39.6356 324.168ZM47.9041 324.168C47.3815 324.168 46.9101 324.079 46.4901 323.902C46.0795 323.725 45.7248 323.473 45.4261 323.146C45.1368 322.81 44.9128 322.413 44.7541 321.956C44.5955 321.489 44.5161 320.971 44.5161 320.402C44.5161 319.823 44.5955 319.301 44.7541 318.834C44.9221 318.367 45.1508 317.971 45.4401 317.644C45.7295 317.308 46.0748 317.051 46.4761 316.874C46.8868 316.697 47.3395 316.608 47.8341 316.608C48.3195 316.608 48.7581 316.697 49.1501 316.874C49.5515 317.051 49.8921 317.299 50.1721 317.616C50.4521 317.924 50.6668 318.293 50.8161 318.722C50.9655 319.151 51.0401 319.623 51.0401 320.136V320.668H45.6921V321.004C45.6921 321.321 45.7435 321.615 45.8461 321.886C45.9488 322.157 46.0935 322.39 46.2801 322.586C46.4761 322.782 46.7095 322.936 46.9801 323.048C47.2601 323.151 47.5681 323.202 47.9041 323.202C48.3895 323.202 48.8095 323.09 49.1641 322.866C49.5188 322.642 49.7895 322.334 49.9761 321.942L50.8021 322.502C50.5875 322.987 50.2281 323.389 49.7241 323.706C49.2295 324.014 48.6228 324.168 47.9041 324.168ZM47.8341 317.532C47.5261 317.532 47.2415 317.588 46.9801 317.7C46.7188 317.812 46.4901 317.966 46.2941 318.162C46.1075 318.358 45.9581 318.591 45.8461 318.862C45.7435 319.123 45.6921 319.413 45.6921 319.73V319.828H49.8361V319.674C49.8361 319.357 49.7848 319.067 49.6821 318.806C49.5888 318.545 49.4535 318.321 49.2761 318.134C49.1081 317.938 48.8981 317.789 48.6461 317.686C48.4035 317.583 48.1328 317.532 47.8341 317.532Z" fill="black"/>
<path d="M142.162 323.048H144.598V317.728H142.022V316.776H144.598V315.292C144.598 314.807 144.724 314.41 144.976 314.102C145.237 313.794 145.643 313.64 146.194 313.64H148.616V314.592H145.718V316.776H148.616V317.728H145.718V323.048H148.294V324H142.162V323.048ZM150.515 323.048H153.035V314.592H150.515V313.64H154.155V323.048H156.675V324H150.515V323.048ZM161.989 324.168C161.485 324.168 161.028 324.079 160.617 323.902C160.216 323.725 159.87 323.473 159.581 323.146C159.301 322.81 159.086 322.413 158.937 321.956C158.788 321.489 158.713 320.967 158.713 320.388C158.713 319.819 158.788 319.301 158.937 318.834C159.086 318.367 159.301 317.971 159.581 317.644C159.87 317.308 160.216 317.051 160.617 316.874C161.028 316.697 161.485 316.608 161.989 316.608C162.493 316.608 162.946 316.697 163.347 316.874C163.758 317.051 164.103 317.308 164.383 317.644C164.672 317.971 164.892 318.367 165.041 318.834C165.19 319.301 165.265 319.819 165.265 320.388C165.265 320.967 165.19 321.489 165.041 321.956C164.892 322.413 164.672 322.81 164.383 323.146C164.103 323.473 163.758 323.725 163.347 323.902C162.946 324.079 162.493 324.168 161.989 324.168ZM161.989 323.202C162.614 323.202 163.118 323.015 163.501 322.642C163.884 322.269 164.075 321.69 164.075 320.906V319.87C164.075 319.086 163.884 318.507 163.501 318.134C163.118 317.761 162.614 317.574 161.989 317.574C161.364 317.574 160.86 317.761 160.477 318.134C160.094 318.507 159.903 319.086 159.903 319.87V320.906C159.903 321.69 160.094 322.269 160.477 322.642C160.86 323.015 161.364 323.202 161.989 323.202ZM173.114 324C172.675 324 172.362 323.888 172.176 323.664C171.989 323.44 171.872 323.16 171.826 322.824H171.756C171.597 323.244 171.34 323.575 170.986 323.818C170.64 324.051 170.174 324.168 169.586 324.168C168.83 324.168 168.228 323.972 167.78 323.58C167.332 323.188 167.108 322.651 167.108 321.97C167.108 321.298 167.35 320.78 167.836 320.416C168.33 320.052 169.124 319.87 170.216 319.87H171.756V319.156C171.756 318.624 171.606 318.227 171.308 317.966C171.009 317.695 170.584 317.56 170.034 317.56C169.548 317.56 169.152 317.658 168.844 317.854C168.536 318.041 168.288 318.297 168.102 318.624L167.346 318.064C167.439 317.877 167.565 317.695 167.724 317.518C167.882 317.341 168.078 317.187 168.312 317.056C168.545 316.916 168.811 316.809 169.11 316.734C169.408 316.65 169.74 316.608 170.104 316.608C170.953 316.608 171.625 316.823 172.12 317.252C172.624 317.681 172.876 318.279 172.876 319.044V323.02H173.884V324H173.114ZM169.782 323.23C170.071 323.23 170.332 323.197 170.566 323.132C170.808 323.057 171.018 322.964 171.196 322.852C171.373 322.731 171.508 322.591 171.602 322.432C171.704 322.264 171.756 322.087 171.756 321.9V320.71H170.216C169.544 320.71 169.054 320.803 168.746 320.99C168.438 321.177 168.284 321.447 168.284 321.802V322.096C168.284 322.469 168.414 322.754 168.676 322.95C168.946 323.137 169.315 323.23 169.782 323.23ZM179.128 324C178.577 324 178.171 323.846 177.91 323.538C177.658 323.23 177.532 322.833 177.532 322.348V317.728H175.124V316.776H176.916C177.159 316.776 177.327 316.729 177.42 316.636C177.523 316.533 177.574 316.361 177.574 316.118V314.228H178.652V316.776H181.942V317.728H178.652V323.048H181.942V324H179.128Z" fill="#E98C00"/>
<line y1="338.5" x2="296" y2="338.5" stroke="black" stroke-opacity="0.2"/>
<line x1="0.5" y1="299" x2="0.499998" y2="338" stroke="black" stroke-opacity="0.2"/>
<line x1="295.678" y1="299" x2="295.678" y2="338" stroke="black" stroke-opacity="0.2"/>
<rect width="296" height="40" transform="translate(0 339)" fill="white"/>
<rect width="296" height="40" transform="translate(0 339)" fill="white" fill-opacity="0.02"/>
<path d="M14.452 364.168C13.9293 364.168 13.4627 364.079 13.052 363.902C12.6507 363.715 12.31 363.459 12.03 363.132C11.75 362.805 11.5353 362.409 11.386 361.942C11.246 361.475 11.176 360.957 11.176 360.388C11.176 359.819 11.2507 359.301 11.4 358.834C11.5493 358.367 11.764 357.971 12.044 357.644C12.324 357.308 12.6647 357.051 13.066 356.874C13.4673 356.697 13.9247 356.608 14.438 356.608C15.138 356.608 15.7073 356.762 16.146 357.07C16.5847 357.378 16.9067 357.779 17.112 358.274L16.216 358.75C16.0853 358.377 15.866 358.087 15.558 357.882C15.2593 357.677 14.886 357.574 14.438 357.574C14.1113 357.574 13.8173 357.63 13.556 357.742C13.304 357.845 13.0893 357.994 12.912 358.19C12.7347 358.386 12.5993 358.619 12.506 358.89C12.422 359.161 12.38 359.455 12.38 359.772V361.004C12.38 361.321 12.422 361.615 12.506 361.886C12.5993 362.157 12.7347 362.39 12.912 362.586C13.0893 362.782 13.3087 362.936 13.57 363.048C13.8313 363.151 14.13 363.202 14.466 363.202C14.9513 363.202 15.3527 363.09 15.67 362.866C15.9873 362.642 16.2393 362.334 16.426 361.942L17.224 362.488C17.0093 362.973 16.6733 363.375 16.216 363.692C15.768 364.009 15.18 364.168 14.452 364.168ZM22.5945 364.168C22.0905 364.168 21.6332 364.079 21.2225 363.902C20.8212 363.725 20.4759 363.473 20.1865 363.146C19.9065 362.81 19.6919 362.413 19.5425 361.956C19.3932 361.489 19.3185 360.967 19.3185 360.388C19.3185 359.819 19.3932 359.301 19.5425 358.834C19.6919 358.367 19.9065 357.971 20.1865 357.644C20.4759 357.308 20.8212 357.051 21.2225 356.874C21.6332 356.697 22.0905 356.608 22.5945 356.608C23.0985 356.608 23.5512 356.697 23.9525 356.874C24.3632 357.051 24.7085 357.308 24.9885 357.644C25.2779 357.971 25.4972 358.367 25.6465 358.834C25.7959 359.301 25.8705 359.819 25.8705 360.388C25.8705 360.967 25.7959 361.489 25.6465 361.956C25.4972 362.413 25.2779 362.81 24.9885 363.146C24.7085 363.473 24.3632 363.725 23.9525 363.902C23.5512 364.079 23.0985 364.168 22.5945 364.168ZM22.5945 363.202C23.2199 363.202 23.7239 363.015 24.1065 362.642C24.4892 362.269 24.6805 361.69 24.6805 360.906V359.87C24.6805 359.086 24.4892 358.507 24.1065 358.134C23.7239 357.761 23.2199 357.574 22.5945 357.574C21.9692 357.574 21.4652 357.761 21.0825 358.134C20.6999 358.507 20.5085 359.086 20.5085 359.87V360.906C20.5085 361.69 20.6999 362.269 21.0825 362.642C21.4652 363.015 21.9692 363.202 22.5945 363.202ZM27.9091 363.048H30.4291V354.592H27.9091V353.64H31.5491V363.048H34.0691V364H27.9091V363.048ZM39.3836 364.168C38.8796 364.168 38.4223 364.079 38.0116 363.902C37.6103 363.725 37.2649 363.473 36.9756 363.146C36.6956 362.81 36.4809 362.413 36.3316 361.956C36.1823 361.489 36.1076 360.967 36.1076 360.388C36.1076 359.819 36.1823 359.301 36.3316 358.834C36.4809 358.367 36.6956 357.971 36.9756 357.644C37.2649 357.308 37.6103 357.051 38.0116 356.874C38.4223 356.697 38.8796 356.608 39.3836 356.608C39.8876 356.608 40.3403 356.697 40.7416 356.874C41.1523 357.051 41.4976 357.308 41.7776 357.644C42.0669 357.971 42.2863 358.367 42.4356 358.834C42.5849 359.301 42.6596 359.819 42.6596 360.388C42.6596 360.967 42.5849 361.489 42.4356 361.956C42.2863 362.413 42.0669 362.81 41.7776 363.146C41.4976 363.473 41.1523 363.725 40.7416 363.902C40.3403 364.079 39.8876 364.168 39.3836 364.168ZM39.3836 363.202C40.0089 363.202 40.5129 363.015 40.8956 362.642C41.2783 362.269 41.4696 361.69 41.4696 360.906V359.87C41.4696 359.086 41.2783 358.507 40.8956 358.134C40.5129 357.761 40.0089 357.574 39.3836 357.574C38.7583 357.574 38.2543 357.761 37.8716 358.134C37.4889 358.507 37.2976 359.086 37.2976 359.87V360.906C37.2976 361.69 37.4889 362.269 37.8716 362.642C38.2543 363.015 38.7583 363.202 39.3836 363.202ZM44.6561 363.048H46.7701V357.728H44.6561V356.776H47.8901V358.596H47.9601C48.1095 358.027 48.3895 357.583 48.8001 357.266C49.2201 356.939 49.7521 356.776 50.3961 356.776H51.4041V357.896H50.0461C49.4021 357.896 48.8795 358.083 48.4781 358.456C48.0861 358.829 47.8901 359.319 47.8901 359.926V363.048H50.6901V364H44.6561V363.048Z" fill="black"/>
<path d="M145.284 364.168C144.528 364.168 143.875 364.042 143.324 363.79C142.783 363.529 142.321 363.183 141.938 362.754L142.694 362.096C143.039 362.46 143.417 362.74 143.828 362.936C144.239 363.132 144.733 363.23 145.312 363.23C145.872 363.23 146.329 363.132 146.684 362.936C147.048 362.731 147.23 362.413 147.23 361.984C147.23 361.797 147.193 361.643 147.118 361.522C147.053 361.391 146.959 361.289 146.838 361.214C146.717 361.139 146.581 361.083 146.432 361.046C146.283 360.999 146.124 360.962 145.956 360.934L144.822 360.766C144.57 360.729 144.295 360.677 143.996 360.612C143.707 360.547 143.441 360.444 143.198 360.304C142.955 360.155 142.75 359.959 142.582 359.716C142.423 359.473 142.344 359.156 142.344 358.764C142.344 358.4 142.414 358.087 142.554 357.826C142.703 357.555 142.909 357.331 143.17 357.154C143.431 356.967 143.739 356.832 144.094 356.748C144.449 356.655 144.836 356.608 145.256 356.608C145.909 356.608 146.474 356.711 146.95 356.916C147.435 357.121 147.851 357.406 148.196 357.77L147.468 358.456C147.384 358.353 147.277 358.251 147.146 358.148C147.025 358.036 146.871 357.938 146.684 357.854C146.507 357.761 146.297 357.686 146.054 357.63C145.811 357.574 145.531 357.546 145.214 357.546C144.645 357.546 144.206 357.644 143.898 357.84C143.599 358.036 143.45 358.321 143.45 358.694C143.45 358.881 143.483 359.039 143.548 359.17C143.623 359.291 143.721 359.389 143.842 359.464C143.963 359.539 144.099 359.599 144.248 359.646C144.407 359.683 144.565 359.716 144.724 359.744L145.858 359.912C146.119 359.949 146.395 360.001 146.684 360.066C146.973 360.131 147.239 360.239 147.482 360.388C147.725 360.528 147.925 360.719 148.084 360.962C148.252 361.205 148.336 361.522 148.336 361.914C148.336 362.633 148.056 363.188 147.496 363.58C146.945 363.972 146.208 364.168 145.284 364.168ZM153.945 364C153.394 364 152.988 363.846 152.727 363.538C152.475 363.23 152.349 362.833 152.349 362.348V357.728H149.941V356.776H151.733C151.975 356.776 152.143 356.729 152.237 356.636C152.339 356.533 152.391 356.361 152.391 356.118V354.228H153.469V356.776H156.759V357.728H153.469V363.048H156.759V364H153.945ZM158.867 363.048H160.981V357.728H158.867V356.776H162.101V358.596H162.171C162.32 358.027 162.6 357.583 163.011 357.266C163.431 356.939 163.963 356.776 164.607 356.776H165.615V357.896H164.257C163.613 357.896 163.09 358.083 162.689 358.456C162.297 358.829 162.101 359.319 162.101 359.926V363.048H164.901V364H158.867V363.048ZM170.832 355.18C170.505 355.18 170.276 355.115 170.146 354.984C170.015 354.844 169.95 354.671 169.95 354.466V354.242C169.95 354.037 170.015 353.869 170.146 353.738C170.276 353.598 170.505 353.528 170.832 353.528C171.158 353.528 171.387 353.598 171.518 353.738C171.648 353.869 171.714 354.037 171.714 354.242V354.466C171.714 354.671 171.648 354.844 171.518 354.984C171.387 355.115 171.158 355.18 170.832 355.18ZM167.668 363.048H170.272V357.728H167.668V356.776H171.392V363.048H173.828V364H167.668V363.048ZM175.95 364V356.776H177.07V357.952H177.126C177.201 357.775 177.294 357.607 177.406 357.448C177.518 357.28 177.653 357.135 177.812 357.014C177.98 356.893 178.176 356.795 178.4 356.72C178.624 356.645 178.885 356.608 179.184 356.608C179.94 356.608 180.547 356.851 181.004 357.336C181.461 357.812 181.69 358.489 181.69 359.366V364H180.57V359.562C180.57 358.899 180.425 358.409 180.136 358.092C179.847 357.765 179.422 357.602 178.862 357.602C178.638 357.602 178.419 357.63 178.204 357.686C177.989 357.742 177.798 357.826 177.63 357.938C177.462 358.05 177.327 358.195 177.224 358.372C177.121 358.549 177.07 358.755 177.07 358.988V364H175.95ZM190.827 364.826C190.827 365.554 190.523 366.091 189.917 366.436C189.31 366.791 188.4 366.968 187.187 366.968C186.02 366.968 185.18 366.814 184.667 366.506C184.163 366.198 183.911 365.755 183.911 365.176C183.911 364.784 184.013 364.481 184.219 364.266C184.424 364.051 184.713 363.893 185.087 363.79V363.622C184.881 363.519 184.723 363.389 184.611 363.23C184.499 363.071 184.443 362.871 184.443 362.628C184.443 362.255 184.564 361.975 184.807 361.788C185.059 361.601 185.371 361.461 185.745 361.368V361.312C185.297 361.116 184.947 360.827 184.695 360.444C184.452 360.061 184.331 359.613 184.331 359.1C184.331 358.736 184.396 358.4 184.527 358.092C184.657 357.784 184.844 357.523 185.087 357.308C185.339 357.084 185.637 356.911 185.983 356.79C186.328 356.669 186.711 356.608 187.131 356.608C187.672 356.608 188.148 356.706 188.559 356.902V356.776C188.559 356.496 188.624 356.263 188.755 356.076C188.885 355.889 189.109 355.796 189.427 355.796H190.757V356.776H189.133V357.266C189.394 357.49 189.595 357.756 189.735 358.064C189.875 358.372 189.945 358.717 189.945 359.1C189.945 359.464 189.875 359.8 189.735 360.108C189.604 360.416 189.417 360.682 189.175 360.906C188.932 361.121 188.633 361.289 188.279 361.41C187.933 361.531 187.551 361.592 187.131 361.592C187.009 361.592 186.893 361.587 186.781 361.578C186.669 361.569 186.557 361.555 186.445 361.536C186.333 361.555 186.216 361.587 186.095 361.634C185.973 361.671 185.861 361.727 185.759 361.802C185.656 361.867 185.572 361.947 185.507 362.04C185.441 362.133 185.409 362.241 185.409 362.362C185.409 362.577 185.516 362.721 185.731 362.796C185.945 362.861 186.225 362.894 186.571 362.894H188.167C189.1 362.894 189.777 363.071 190.197 363.426C190.617 363.771 190.827 364.238 190.827 364.826ZM189.777 364.882C189.777 364.593 189.66 364.359 189.427 364.182C189.193 364.014 188.787 363.93 188.209 363.93H185.703C185.217 364.126 184.975 364.453 184.975 364.91C184.975 365.227 185.101 365.498 185.353 365.722C185.605 365.955 186.025 366.072 186.613 366.072H187.705C188.358 366.072 188.867 365.969 189.231 365.764C189.595 365.568 189.777 365.274 189.777 364.882ZM187.131 360.724C187.691 360.724 188.101 360.593 188.363 360.332C188.633 360.071 188.769 359.725 188.769 359.296V358.89C188.769 358.461 188.633 358.12 188.363 357.868C188.101 357.607 187.691 357.476 187.131 357.476C186.571 357.476 186.16 357.607 185.899 357.868C185.637 358.12 185.507 358.461 185.507 358.89V359.296C185.507 359.725 185.637 360.071 185.899 360.332C186.16 360.593 186.571 360.724 187.131 360.724Z" fill="#E98C00"/>
<line y1="378.5" x2="296" y2="378.5" stroke="black" stroke-opacity="0.2"/>
<line x1="0.5" y1="339" x2="0.499998" y2="378" stroke="black" stroke-opacity="0.2"/>
<line x1="295.678" y1="339" x2="295.678" y2="378" stroke="black" stroke-opacity="0.2"/>
<rect width="296" height="40" transform="translate(0 379)" fill="white"/>
<rect width="296" height="40" transform="translate(0 379)" fill="white" fill-opacity="0.02"/>
<path d="M14.284 404.168C13.528 404.168 12.8747 404.042 12.324 403.79C11.7827 403.529 11.3207 403.183 10.938 402.754L11.694 402.096C12.0393 402.46 12.4173 402.74 12.828 402.936C13.2387 403.132 13.7333 403.23 14.312 403.23C14.872 403.23 15.3293 403.132 15.684 402.936C16.048 402.731 16.23 402.413 16.23 401.984C16.23 401.797 16.1927 401.643 16.118 401.522C16.0527 401.391 15.9593 401.289 15.838 401.214C15.7167 401.139 15.5813 401.083 15.432 401.046C15.2827 400.999 15.124 400.962 14.956 400.934L13.822 400.766C13.57 400.729 13.2947 400.677 12.996 400.612C12.7067 400.547 12.4407 400.444 12.198 400.304C11.9553 400.155 11.75 399.959 11.582 399.716C11.4233 399.473 11.344 399.156 11.344 398.764C11.344 398.4 11.414 398.087 11.554 397.826C11.7033 397.555 11.9087 397.331 12.17 397.154C12.4313 396.967 12.7393 396.832 13.094 396.748C13.4487 396.655 13.836 396.608 14.256 396.608C14.9093 396.608 15.474 396.711 15.95 396.916C16.4353 397.121 16.8507 397.406 17.196 397.77L16.468 398.456C16.384 398.353 16.2767 398.251 16.146 398.148C16.0247 398.036 15.8707 397.938 15.684 397.854C15.5067 397.761 15.2967 397.686 15.054 397.63C14.8113 397.574 14.5313 397.546 14.214 397.546C13.6447 397.546 13.206 397.644 12.898 397.84C12.5993 398.036 12.45 398.321 12.45 398.694C12.45 398.881 12.4827 399.039 12.548 399.17C12.6227 399.291 12.7207 399.389 12.842 399.464C12.9633 399.539 13.0987 399.599 13.248 399.646C13.4067 399.683 13.5653 399.716 13.724 399.744L14.858 399.912C15.1193 399.949 15.3947 400.001 15.684 400.066C15.9733 400.131 16.2393 400.239 16.482 400.388C16.7247 400.528 16.9253 400.719 17.084 400.962C17.252 401.205 17.336 401.522 17.336 401.914C17.336 402.633 17.056 403.188 16.496 403.58C15.9453 403.972 15.208 404.168 14.284 404.168ZM23.0425 395.18C22.7159 395.18 22.4872 395.115 22.3565 394.984C22.2259 394.844 22.1605 394.671 22.1605 394.466V394.242C22.1605 394.037 22.2259 393.869 22.3565 393.738C22.4872 393.598 22.7159 393.528 23.0425 393.528C23.3692 393.528 23.5979 393.598 23.7285 393.738C23.8592 393.869 23.9245 394.037 23.9245 394.242V394.466C23.9245 394.671 23.8592 394.844 23.7285 394.984C23.5979 395.115 23.3692 395.18 23.0425 395.18ZM19.8785 403.048H22.4825V397.728H19.8785V396.776H23.6025V403.048H26.0385V404H19.8785V403.048ZM27.9791 404V402.922L32.6411 397.728H28.1331V396.776H33.8591V397.854L29.1971 403.048H33.9991V404H27.9791ZM39.5096 404.168C38.9869 404.168 38.5156 404.079 38.0956 403.902C37.6849 403.725 37.3303 403.473 37.0316 403.146C36.7423 402.81 36.5183 402.413 36.3596 401.956C36.2009 401.489 36.1216 400.971 36.1216 400.402C36.1216 399.823 36.2009 399.301 36.3596 398.834C36.5276 398.367 36.7563 397.971 37.0456 397.644C37.3349 397.308 37.6803 397.051 38.0816 396.874C38.4923 396.697 38.9449 396.608 39.4396 396.608C39.9249 396.608 40.3636 396.697 40.7556 396.874C41.1569 397.051 41.4976 397.299 41.7776 397.616C42.0576 397.924 42.2723 398.293 42.4216 398.722C42.5709 399.151 42.6456 399.623 42.6456 400.136V400.668H37.2976V401.004C37.2976 401.321 37.3489 401.615 37.4516 401.886C37.5543 402.157 37.6989 402.39 37.8856 402.586C38.0816 402.782 38.3149 402.936 38.5856 403.048C38.8656 403.151 39.1736 403.202 39.5096 403.202C39.9949 403.202 40.4149 403.09 40.7696 402.866C41.1243 402.642 41.3949 402.334 41.5816 401.942L42.4076 402.502C42.1929 402.987 41.8336 403.389 41.3296 403.706C40.8349 404.014 40.2283 404.168 39.5096 404.168ZM39.4396 397.532C39.1316 397.532 38.8469 397.588 38.5856 397.7C38.3243 397.812 38.0956 397.966 37.8996 398.162C37.7129 398.358 37.5636 398.591 37.4516 398.862C37.3489 399.123 37.2976 399.413 37.2976 399.73V399.828H41.4416V399.674C41.4416 399.357 41.3903 399.067 41.2876 398.806C41.1943 398.545 41.0589 398.321 40.8816 398.134C40.7136 397.938 40.5036 397.789 40.2516 397.686C40.0089 397.583 39.7383 397.532 39.4396 397.532Z" fill="black"/>
<path d="M145.648 395.18C145.321 395.18 145.093 395.115 144.962 394.984C144.831 394.844 144.766 394.671 144.766 394.466V394.242C144.766 394.037 144.831 393.869 144.962 393.738C145.093 393.598 145.321 393.528 145.648 393.528C145.975 393.528 146.203 393.598 146.334 393.738C146.465 393.869 146.53 394.037 146.53 394.242V394.466C146.53 394.671 146.465 394.844 146.334 394.984C146.203 395.115 145.975 395.18 145.648 395.18ZM142.484 403.048H145.088V397.728H142.484V396.776H146.208V403.048H148.644V404H142.484V403.048ZM150.767 404V396.776H151.887V397.952H151.943C152.017 397.775 152.111 397.607 152.223 397.448C152.335 397.28 152.47 397.135 152.629 397.014C152.797 396.893 152.993 396.795 153.217 396.72C153.441 396.645 153.702 396.608 154.001 396.608C154.757 396.608 155.363 396.851 155.821 397.336C156.278 397.812 156.507 398.489 156.507 399.366V404H155.387V399.562C155.387 398.899 155.242 398.409 154.953 398.092C154.663 397.765 154.239 397.602 153.679 397.602C153.455 397.602 153.235 397.63 153.021 397.686C152.806 397.742 152.615 397.826 152.447 397.938C152.279 398.05 152.143 398.195 152.041 398.372C151.938 398.549 151.887 398.755 151.887 398.988V404H150.767ZM162.339 404C161.788 404 161.382 403.846 161.121 403.538C160.869 403.23 160.743 402.833 160.743 402.348V397.728H158.335V396.776H160.127C160.37 396.776 160.538 396.729 160.631 396.636C160.734 396.533 160.785 396.361 160.785 396.118V394.228H161.863V396.776H165.153V397.728H161.863V403.048H165.153V404H162.339Z" fill="#E98C00"/>
<line y1="418.5" x2="296" y2="418.5" stroke="black" stroke-opacity="0.2"/>
<line x1="0.5" y1="379" x2="0.499998" y2="418" stroke="black" stroke-opacity="0.2"/>
<line x1="295.678" y1="379" x2="295.678" y2="418" stroke="black" stroke-opacity="0.2"/>
<rect width="296" height="40" transform="translate(0 419)" fill="white"/>
<rect width="296" height="40" transform="translate(0 419)" fill="white" fill-opacity="0.02"/>
<path d="M15.95 442.824H15.894C15.4273 443.72 14.6853 444.168 13.668 444.168C12.7813 444.168 12.086 443.837 11.582 443.174C11.0873 442.511 10.84 441.583 10.84 440.388C10.84 439.193 11.0873 438.265 11.582 437.602C12.086 436.939 12.7813 436.608 13.668 436.608C14.6853 436.608 15.4273 437.056 15.894 437.952H15.95V433.64H17.07V444H15.95V442.824ZM14.102 443.174C14.354 443.174 14.592 443.141 14.816 443.076C15.04 443.011 15.236 442.917 15.404 442.796C15.572 442.665 15.7027 442.511 15.796 442.334C15.8987 442.147 15.95 441.933 15.95 441.69V439.086C15.95 438.843 15.8987 438.633 15.796 438.456C15.7027 438.269 15.572 438.115 15.404 437.994C15.236 437.863 15.04 437.765 14.816 437.7C14.592 437.635 14.354 437.602 14.102 437.602C13.4487 437.602 12.94 437.803 12.576 438.204C12.2213 438.596 12.044 439.119 12.044 439.772V441.004C12.044 441.657 12.2213 442.185 12.576 442.586C12.94 442.978 13.4487 443.174 14.102 443.174ZM23.0425 435.18C22.7159 435.18 22.4872 435.115 22.3565 434.984C22.2259 434.844 22.1605 434.671 22.1605 434.466V434.242C22.1605 434.037 22.2259 433.869 22.3565 433.738C22.4872 433.598 22.7159 433.528 23.0425 433.528C23.3692 433.528 23.5979 433.598 23.7285 433.738C23.8592 433.869 23.9245 434.037 23.9245 434.242V434.466C23.9245 434.671 23.8592 434.844 23.7285 434.984C23.5979 435.115 23.3692 435.18 23.0425 435.18ZM19.8785 443.048H22.4825V437.728H19.8785V436.776H23.6025V443.048H26.0385V444H19.8785V443.048ZM34.6431 444.826C34.6431 445.554 34.3397 446.091 33.7331 446.436C33.1264 446.791 32.2164 446.968 31.0031 446.968C29.8364 446.968 28.9964 446.814 28.4831 446.506C27.9791 446.198 27.7271 445.755 27.7271 445.176C27.7271 444.784 27.8297 444.481 28.0351 444.266C28.2404 444.051 28.5297 443.893 28.9031 443.79V443.622C28.6977 443.519 28.5391 443.389 28.4271 443.23C28.3151 443.071 28.2591 442.871 28.2591 442.628C28.2591 442.255 28.3804 441.975 28.6231 441.788C28.8751 441.601 29.1877 441.461 29.5611 441.368V441.312C29.1131 441.116 28.7631 440.827 28.5111 440.444C28.2684 440.061 28.1471 439.613 28.1471 439.1C28.1471 438.736 28.2124 438.4 28.3431 438.092C28.4737 437.784 28.6604 437.523 28.9031 437.308C29.1551 437.084 29.4537 436.911 29.7991 436.79C30.1444 436.669 30.5271 436.608 30.9471 436.608C31.4884 436.608 31.9644 436.706 32.3751 436.902V436.776C32.3751 436.496 32.4404 436.263 32.5711 436.076C32.7017 435.889 32.9257 435.796 33.2431 435.796H34.5731V436.776H32.9491V437.266C33.2104 437.49 33.4111 437.756 33.5511 438.064C33.6911 438.372 33.7611 438.717 33.7611 439.1C33.7611 439.464 33.6911 439.8 33.5511 440.108C33.4204 440.416 33.2337 440.682 32.9911 440.906C32.7484 441.121 32.4497 441.289 32.0951 441.41C31.7497 441.531 31.3671 441.592 30.9471 441.592C30.8257 441.592 30.7091 441.587 30.5971 441.578C30.4851 441.569 30.3731 441.555 30.2611 441.536C30.1491 441.555 30.0324 441.587 29.9111 441.634C29.7897 441.671 29.6777 441.727 29.5751 441.802C29.4724 441.867 29.3884 441.947 29.3231 442.04C29.2577 442.133 29.2251 442.241 29.2251 442.362C29.2251 442.577 29.3324 442.721 29.5471 442.796C29.7617 442.861 30.0417 442.894 30.3871 442.894H31.9831C32.9164 442.894 33.5931 443.071 34.0131 443.426C34.4331 443.771 34.6431 444.238 34.6431 444.826ZM33.5931 444.882C33.5931 444.593 33.4764 444.359 33.2431 444.182C33.0097 444.014 32.6037 443.93 32.0251 443.93H29.5191C29.0337 444.126 28.7911 444.453 28.7911 444.91C28.7911 445.227 28.9171 445.498 29.1691 445.722C29.4211 445.955 29.8411 446.072 30.4291 446.072H31.5211C32.1744 446.072 32.6831 445.969 33.0471 445.764C33.4111 445.568 33.5931 445.274 33.5931 444.882ZM30.9471 440.724C31.5071 440.724 31.9177 440.593 32.1791 440.332C32.4497 440.071 32.5851 439.725 32.5851 439.296V438.89C32.5851 438.461 32.4497 438.12 32.1791 437.868C31.9177 437.607 31.5071 437.476 30.9471 437.476C30.3871 437.476 29.9764 437.607 29.7151 437.868C29.4537 438.12 29.3231 438.461 29.3231 438.89V439.296C29.3231 439.725 29.4537 440.071 29.7151 440.332C29.9764 440.593 30.3871 440.724 30.9471 440.724ZM39.8316 435.18C39.5049 435.18 39.2763 435.115 39.1456 434.984C39.0149 434.844 38.9496 434.671 38.9496 434.466V434.242C38.9496 434.037 39.0149 433.869 39.1456 433.738C39.2763 433.598 39.5049 433.528 39.8316 433.528C40.1583 433.528 40.3869 433.598 40.5176 433.738C40.6483 433.869 40.7136 434.037 40.7136 434.242V434.466C40.7136 434.671 40.6483 434.844 40.5176 434.984C40.3869 435.115 40.1583 435.18 39.8316 435.18ZM36.6676 443.048H39.2716V437.728H36.6676V436.776H40.3916V443.048H42.8276V444H36.6676V443.048ZM48.1281 444C47.5775 444 47.1715 443.846 46.9101 443.538C46.6581 443.23 46.5321 442.833 46.5321 442.348V437.728H44.1241V436.776H45.9161C46.1588 436.776 46.3268 436.729 46.4201 436.636C46.5228 436.533 46.5741 436.361 46.5741 436.118V434.228H47.6521V436.776H50.9421V437.728H47.6521V443.048H50.9421V444H48.1281ZM58.9027 444C58.464 444 58.1513 443.888 57.9647 443.664C57.778 443.44 57.6613 443.16 57.6147 442.824H57.5447C57.386 443.244 57.1293 443.575 56.7747 443.818C56.4293 444.051 55.9627 444.168 55.3747 444.168C54.6187 444.168 54.0167 443.972 53.5687 443.58C53.1207 443.188 52.8967 442.651 52.8967 441.97C52.8967 441.298 53.1393 440.78 53.6247 440.416C54.1193 440.052 54.9127 439.87 56.0047 439.87H57.5447V439.156C57.5447 438.624 57.3953 438.227 57.0967 437.966C56.798 437.695 56.3733 437.56 55.8227 437.56C55.3373 437.56 54.9407 437.658 54.6327 437.854C54.3247 438.041 54.0773 438.297 53.8907 438.624L53.1347 438.064C53.228 437.877 53.354 437.695 53.5127 437.518C53.6713 437.341 53.8673 437.187 54.1007 437.056C54.334 436.916 54.6 436.809 54.8987 436.734C55.1973 436.65 55.5287 436.608 55.8927 436.608C56.742 436.608 57.414 436.823 57.9087 437.252C58.4127 437.681 58.6647 438.279 58.6647 439.044V443.02H59.6727V444H58.9027ZM55.5707 443.23C55.86 443.23 56.1213 443.197 56.3547 443.132C56.5973 443.057 56.8073 442.964 56.9847 442.852C57.162 442.731 57.2973 442.591 57.3907 442.432C57.4933 442.264 57.5447 442.087 57.5447 441.9V440.71H56.0047C55.3327 440.71 54.8427 440.803 54.5347 440.99C54.2267 441.177 54.0727 441.447 54.0727 441.802V442.096C54.0727 442.469 54.2033 442.754 54.4647 442.95C54.7353 443.137 55.104 443.23 55.5707 443.23ZM61.4872 443.048H64.0072V434.592H61.4872V433.64H65.1272V443.048H67.6472V444H61.4872V443.048Z" fill="black"/>
<path d="M142.33 433.64H143.45V437.952H143.506C143.973 437.056 144.715 436.608 145.732 436.608C146.619 436.608 147.309 436.939 147.804 437.602C148.308 438.265 148.56 439.193 148.56 440.388C148.56 441.583 148.308 442.511 147.804 443.174C147.309 443.837 146.619 444.168 145.732 444.168C144.715 444.168 143.973 443.72 143.506 442.824H143.45V444H142.33V433.64ZM145.298 443.174C145.951 443.174 146.455 442.978 146.81 442.586C147.174 442.185 147.356 441.657 147.356 441.004V439.772C147.356 439.119 147.174 438.596 146.81 438.204C146.455 437.803 145.951 437.602 145.298 437.602C145.046 437.602 144.808 437.635 144.584 437.7C144.36 437.765 144.164 437.863 143.996 437.994C143.828 438.115 143.693 438.269 143.59 438.456C143.497 438.633 143.45 438.843 143.45 439.086V441.69C143.45 441.933 143.497 442.147 143.59 442.334C143.693 442.511 143.828 442.665 143.996 442.796C144.164 442.917 144.36 443.011 144.584 443.076C144.808 443.141 145.046 443.174 145.298 443.174ZM153.595 444.168C153.091 444.168 152.633 444.079 152.223 443.902C151.821 443.725 151.476 443.473 151.187 443.146C150.907 442.81 150.692 442.413 150.543 441.956C150.393 441.489 150.319 440.967 150.319 440.388C150.319 439.819 150.393 439.301 150.543 438.834C150.692 438.367 150.907 437.971 151.187 437.644C151.476 437.308 151.821 437.051 152.223 436.874C152.633 436.697 153.091 436.608 153.595 436.608C154.099 436.608 154.551 436.697 154.953 436.874C155.363 437.051 155.709 437.308 155.989 437.644C156.278 437.971 156.497 438.367 156.647 438.834C156.796 439.301 156.871 439.819 156.871 440.388C156.871 440.967 156.796 441.489 156.647 441.956C156.497 442.413 156.278 442.81 155.989 443.146C155.709 443.473 155.363 443.725 154.953 443.902C154.551 444.079 154.099 444.168 153.595 444.168ZM153.595 443.202C154.22 443.202 154.724 443.015 155.107 442.642C155.489 442.269 155.681 441.69 155.681 440.906V439.87C155.681 439.086 155.489 438.507 155.107 438.134C154.724 437.761 154.22 437.574 153.595 437.574C152.969 437.574 152.465 437.761 152.083 438.134C151.7 438.507 151.509 439.086 151.509 439.87V440.906C151.509 441.69 151.7 442.269 152.083 442.642C152.465 443.015 152.969 443.202 153.595 443.202ZM161.989 444.168C161.485 444.168 161.028 444.079 160.617 443.902C160.216 443.725 159.87 443.473 159.581 443.146C159.301 442.81 159.086 442.413 158.937 441.956C158.788 441.489 158.713 440.967 158.713 440.388C158.713 439.819 158.788 439.301 158.937 438.834C159.086 438.367 159.301 437.971 159.581 437.644C159.87 437.308 160.216 437.051 160.617 436.874C161.028 436.697 161.485 436.608 161.989 436.608C162.493 436.608 162.946 436.697 163.347 436.874C163.758 437.051 164.103 437.308 164.383 437.644C164.672 437.971 164.892 438.367 165.041 438.834C165.19 439.301 165.265 439.819 165.265 440.388C165.265 440.967 165.19 441.489 165.041 441.956C164.892 442.413 164.672 442.81 164.383 443.146C164.103 443.473 163.758 443.725 163.347 443.902C162.946 444.079 162.493 444.168 161.989 444.168ZM161.989 443.202C162.614 443.202 163.118 443.015 163.501 442.642C163.884 442.269 164.075 441.69 164.075 440.906V439.87C164.075 439.086 163.884 438.507 163.501 438.134C163.118 437.761 162.614 437.574 161.989 437.574C161.364 437.574 160.86 437.761 160.477 438.134C160.094 438.507 159.903 439.086 159.903 439.87V440.906C159.903 441.69 160.094 442.269 160.477 442.642C160.86 443.015 161.364 443.202 161.989 443.202ZM167.304 443.048H169.824V434.592H167.304V433.64H170.944V443.048H173.464V444H167.304V443.048ZM178.904 444.168C178.381 444.168 177.91 444.079 177.49 443.902C177.079 443.725 176.725 443.473 176.426 443.146C176.137 442.81 175.913 442.413 175.754 441.956C175.595 441.489 175.516 440.971 175.516 440.402C175.516 439.823 175.595 439.301 175.754 438.834C175.922 438.367 176.151 437.971 176.44 437.644C176.729 437.308 177.075 437.051 177.476 436.874C177.887 436.697 178.339 436.608 178.834 436.608C179.319 436.608 179.758 436.697 180.15 436.874C180.551 437.051 180.892 437.299 181.172 437.616C181.452 437.924 181.667 438.293 181.816 438.722C181.965 439.151 182.04 439.623 182.04 440.136V440.668H176.692V441.004C176.692 441.321 176.743 441.615 176.846 441.886C176.949 442.157 177.093 442.39 177.28 442.586C177.476 442.782 177.709 442.936 177.98 443.048C178.26 443.151 178.568 443.202 178.904 443.202C179.389 443.202 179.809 443.09 180.164 442.866C180.519 442.642 180.789 442.334 180.976 441.942L181.802 442.502C181.587 442.987 181.228 443.389 180.724 443.706C180.229 444.014 179.623 444.168 178.904 444.168ZM178.834 437.532C178.526 437.532 178.241 437.588 177.98 437.7C177.719 437.812 177.49 437.966 177.294 438.162C177.107 438.358 176.958 438.591 176.846 438.862C176.743 439.123 176.692 439.413 176.692 439.73V439.828H180.836V439.674C180.836 439.357 180.785 439.067 180.682 438.806C180.589 438.545 180.453 438.321 180.276 438.134C180.108 437.938 179.898 437.789 179.646 437.686C179.403 437.583 179.133 437.532 178.834 437.532ZM189.903 444C189.464 444 189.151 443.888 188.965 443.664C188.778 443.44 188.661 443.16 188.615 442.824H188.545C188.386 443.244 188.129 443.575 187.775 443.818C187.429 444.051 186.963 444.168 186.375 444.168C185.619 444.168 185.017 443.972 184.569 443.58C184.121 443.188 183.897 442.651 183.897 441.97C183.897 441.298 184.139 440.78 184.625 440.416C185.119 440.052 185.913 439.87 187.005 439.87H188.545V439.156C188.545 438.624 188.395 438.227 188.097 437.966C187.798 437.695 187.373 437.56 186.823 437.56C186.337 437.56 185.941 437.658 185.633 437.854C185.325 438.041 185.077 438.297 184.891 438.624L184.135 438.064C184.228 437.877 184.354 437.695 184.513 437.518C184.671 437.341 184.867 437.187 185.101 437.056C185.334 436.916 185.6 436.809 185.899 436.734C186.197 436.65 186.529 436.608 186.893 436.608C187.742 436.608 188.414 436.823 188.909 437.252C189.413 437.681 189.665 438.279 189.665 439.044V443.02H190.673V444H189.903ZM186.571 443.23C186.86 443.23 187.121 443.197 187.355 443.132C187.597 443.057 187.807 442.964 187.985 442.852C188.162 442.731 188.297 442.591 188.391 442.432C188.493 442.264 188.545 442.087 188.545 441.9V440.71H187.005C186.333 440.71 185.843 440.803 185.535 440.99C185.227 441.177 185.073 441.447 185.073 441.802V442.096C185.073 442.469 185.203 442.754 185.465 442.95C185.735 443.137 186.104 443.23 186.571 443.23ZM192.739 444V436.776H193.859V437.952H193.915C193.99 437.775 194.083 437.607 194.195 437.448C194.307 437.28 194.443 437.135 194.601 437.014C194.769 436.893 194.965 436.795 195.189 436.72C195.413 436.645 195.675 436.608 195.973 436.608C196.729 436.608 197.336 436.851 197.793 437.336C198.251 437.812 198.479 438.489 198.479 439.366V444H197.359V439.562C197.359 438.899 197.215 438.409 196.925 438.092C196.636 437.765 196.211 437.602 195.651 437.602C195.427 437.602 195.208 437.63 194.993 437.686C194.779 437.742 194.587 437.826 194.419 437.938C194.251 438.05 194.116 438.195 194.013 438.372C193.911 438.549 193.859 438.755 193.859 438.988V444H192.739Z" fill="#E98C00"/>
<line y1="458.5" x2="296" y2="458.5" stroke="black" stroke-opacity="0.2"/>
<line x1="0.5" y1="419" x2="0.499998" y2="458" stroke="black" stroke-opacity="0.2"/>
<line x1="295.678" y1="419" x2="295.678" y2="458" stroke="black" stroke-opacity="0.2"/>
<path d="M119.088 93.16C117.733 93.16 116.688 92.7013 115.952 91.784C115.227 90.8667 114.864 89.512 114.864 87.72C114.864 85.928 115.227 84.5733 115.952 83.656C116.688 82.7387 117.733 82.28 119.088 82.28C120.443 82.28 121.483 82.7387 122.208 83.656C122.944 84.5733 123.312 85.928 123.312 87.72C123.312 89.512 122.944 90.8667 122.208 91.784C121.483 92.7013 120.443 93.16 119.088 93.16ZM119.088 91.384C119.547 91.384 119.92 91.256 120.208 91C120.507 90.7333 120.731 90.3333 120.88 89.8C121.029 89.256 121.104 88.5627 121.104 87.72C121.104 86.8773 121.029 86.1893 120.88 85.656C120.731 85.112 120.507 84.712 120.208 84.456C119.92 84.1893 119.547 84.056 119.088 84.056C118.629 84.056 118.251 84.1893 117.952 84.456C117.653 84.712 117.429 85.112 117.28 85.656C117.141 86.1893 117.072 86.8773 117.072 87.72C117.072 88.5627 117.141 89.256 117.28 89.8C117.429 90.3333 117.653 90.7333 117.952 91C118.251 91.256 118.629 91.384 119.088 91.384ZM126.338 90.552C126.765 90.552 127.101 90.6693 127.346 90.904C127.602 91.1387 127.73 91.4533 127.73 91.848C127.73 92.2533 127.602 92.5733 127.346 92.808C127.101 93.032 126.765 93.144 126.338 93.144C125.911 93.144 125.57 93.032 125.314 92.808C125.069 92.5733 124.946 92.2533 124.946 91.848C124.946 91.4533 125.069 91.1387 125.314 90.904C125.57 90.6693 125.911 90.552 126.338 90.552ZM130.998 90.552C131.425 90.552 131.761 90.6693 132.006 90.904C132.262 91.1387 132.39 91.4533 132.39 91.848C132.39 92.2533 132.262 92.5733 132.006 92.808C131.761 93.032 131.425 93.144 130.998 93.144C130.571 93.144 130.23 93.032 129.974 92.808C129.729 92.5733 129.606 92.2533 129.606 91.848C129.606 91.4533 129.729 91.1387 129.974 90.904C130.23 90.6693 130.571 90.552 130.998 90.552ZM136.863 84.952L138.191 86.232L139.439 87.912L138.143 88.856L136.927 87.144L136.127 85.496L136.495 85.224L136.863 84.952ZM136.127 84.952L136.495 85.224L136.863 85.496L136.063 87.144L134.847 88.856L133.551 87.912L134.815 86.232L136.127 84.952ZM133.023 83.256L135.023 83.928L136.639 84.776L136.495 85.224L136.351 85.672L134.543 85.4L132.543 84.776L133.023 83.256ZM137.295 81.32L137.263 83.416L136.959 85.224H136.495H136.031L135.727 83.416L135.679 81.32H137.295ZM139.967 83.256L140.447 84.776L138.447 85.4L136.639 85.672L136.495 85.224L136.351 84.776L137.967 83.928L139.967 83.256Z" fill="white"/>
<path d="M301.088 224.16C299.733 224.16 298.688 223.701 297.952 222.784C297.227 221.867 296.864 220.512 296.864 218.72C296.864 216.928 297.227 215.573 297.952 214.656C298.688 213.739 299.733 213.28 301.088 213.28C302.443 213.28 303.483 213.739 304.208 214.656C304.944 215.573 305.312 216.928 305.312 218.72C305.312 220.512 304.944 221.867 304.208 222.784C303.483 223.701 302.443 224.16 301.088 224.16ZM301.088 222.384C301.547 222.384 301.92 222.256 302.208 222C302.507 221.733 302.731 221.333 302.88 220.8C303.029 220.256 303.104 219.563 303.104 218.72C303.104 217.877 303.029 217.189 302.88 216.656C302.731 216.112 302.507 215.712 302.208 215.456C301.92 215.189 301.547 215.056 301.088 215.056C300.629 215.056 300.251 215.189 299.952 215.456C299.653 215.712 299.429 216.112 299.28 216.656C299.141 217.189 299.072 217.877 299.072 218.72C299.072 219.563 299.141 220.256 299.28 220.8C299.429 221.333 299.653 221.733 299.952 222C300.251 222.256 300.629 222.384 301.088 222.384ZM308.338 221.552C308.765 221.552 309.101 221.669 309.346 221.904C309.602 222.139 309.73 222.453 309.73 222.848C309.73 223.253 309.602 223.573 309.346 223.808C309.101 224.032 308.765 224.144 308.338 224.144C307.911 224.144 307.57 224.032 307.314 223.808C307.069 223.573 306.946 223.253 306.946 222.848C306.946 222.453 307.069 222.139 307.314 221.904C307.57 221.669 307.911 221.552 308.338 221.552ZM312.998 221.552C313.425 221.552 313.761 221.669 314.006 221.904C314.262 222.139 314.39 222.453 314.39 222.848C314.39 223.253 314.262 223.573 314.006 223.808C313.761 224.032 313.425 224.144 312.998 224.144C312.571 224.144 312.23 224.032 311.974 223.808C311.729 223.573 311.606 223.253 311.606 222.848C311.606 222.453 311.729 222.139 311.974 221.904C312.23 221.669 312.571 221.552 312.998 221.552ZM318.863 215.952L320.191 217.232L321.439 218.912L320.143 219.856L318.927 218.144L318.127 216.496L318.495 216.224L318.863 215.952ZM318.127 215.952L318.495 216.224L318.863 216.496L318.063 218.144L316.847 219.856L315.551 218.912L316.815 217.232L318.127 215.952ZM315.023 214.256L317.023 214.928L318.639 215.776L318.495 216.224L318.351 216.672L316.543 216.4L314.543 215.776L315.023 214.256ZM319.295 212.32L319.263 214.416L318.959 216.224H318.495H318.031L317.727 214.416L317.679 212.32H319.295ZM321.967 214.256L322.447 215.776L320.447 216.4L318.639 216.672L318.495 216.224L318.351 215.776L319.967 214.928L321.967 214.256Z" fill="white"/>
<path d="M239.152 21V13H241.12L241.2 14.44C241.467 13.9067 241.829 13.5067 242.288 13.24C242.757 12.9733 243.275 12.84 243.84 12.84C244.416 12.84 244.933 12.9733 245.392 13.24C245.861 13.5067 246.213 13.9013 246.448 14.424C246.619 14.072 246.848 13.7787 247.136 13.544C247.424 13.3093 247.744 13.1333 248.096 13.016C248.448 12.8987 248.805 12.84 249.168 12.84C249.691 12.84 250.165 12.9467 250.592 13.16C251.029 13.3733 251.376 13.6933 251.632 14.12C251.888 14.5467 252.016 15.0907 252.016 15.752V21H249.824V16.184C249.824 15.5973 249.696 15.1813 249.44 14.936C249.184 14.6907 248.853 14.568 248.448 14.568C248.128 14.568 247.829 14.648 247.552 14.808C247.285 14.968 247.072 15.208 246.912 15.528C246.763 15.8373 246.688 16.2267 246.688 16.696V21H244.496V16.184C244.496 15.5973 244.363 15.1813 244.096 14.936C243.84 14.6907 243.509 14.568 243.104 14.568C242.827 14.568 242.549 14.6427 242.272 14.792C242.005 14.9413 241.781 15.176 241.6 15.496C241.429 15.816 241.344 16.2373 241.344 16.76V21H239.152ZM258.997 15.896C258.997 15.4373 258.864 15.08 258.597 14.824C258.341 14.568 258 14.44 257.573 14.44C257.178 14.44 256.832 14.5413 256.533 14.744C256.234 14.9467 256.016 15.2827 255.877 15.752L254.005 15.176C254.186 14.472 254.581 13.9067 255.189 13.48C255.808 13.0533 256.634 12.84 257.669 12.84C258.373 12.84 258.986 12.952 259.509 13.176C260.032 13.3893 260.437 13.7147 260.725 14.152C261.024 14.5893 261.173 15.1387 261.173 15.8V19.048C261.173 19.4533 261.365 19.656 261.749 19.656C261.93 19.656 262.101 19.6293 262.261 19.576L262.133 20.936C261.856 21.0747 261.509 21.144 261.093 21.144C260.72 21.144 260.384 21.08 260.085 20.952C259.786 20.824 259.552 20.632 259.381 20.376C259.21 20.1093 259.125 19.7787 259.125 19.384V19.32L259.509 19.256C259.445 19.6613 259.269 20.008 258.981 20.296C258.693 20.5733 258.341 20.7867 257.925 20.936C257.52 21.0853 257.098 21.16 256.661 21.16C256.117 21.16 255.648 21.08 255.253 20.92C254.858 20.7493 254.554 20.504 254.341 20.184C254.128 19.864 254.021 19.4693 254.021 19C254.021 18.4027 254.213 17.9173 254.597 17.544C254.981 17.16 255.53 16.8987 256.245 16.76L259.253 16.152L259.237 17.512L257.317 17.896C256.954 17.9707 256.677 18.072 256.485 18.2C256.304 18.3173 256.213 18.5147 256.213 18.792C256.213 19.0587 256.309 19.2613 256.501 19.4C256.704 19.5387 256.944 19.608 257.221 19.608C257.445 19.608 257.664 19.5813 257.877 19.528C258.09 19.4747 258.282 19.3893 258.453 19.272C258.624 19.1547 258.757 18.9947 258.853 18.792C258.949 18.5893 258.997 18.344 258.997 18.056V15.896ZM263.784 24.36V13H265.752L265.896 15.544L265.624 15.256C265.72 14.7867 265.896 14.3707 266.152 14.008C266.419 13.6453 266.755 13.3627 267.161 13.16C267.566 12.9467 268.019 12.84 268.521 12.84C269.171 12.84 269.753 13.0053 270.265 13.336C270.777 13.6667 271.177 14.1413 271.465 14.76C271.763 15.368 271.913 16.1093 271.913 16.984C271.913 17.8587 271.763 18.6107 271.465 19.24C271.166 19.8587 270.755 20.3333 270.233 20.664C269.72 20.9947 269.134 21.16 268.472 21.16C267.769 21.16 267.182 20.9627 266.713 20.568C266.254 20.1733 265.939 19.6773 265.768 19.08L265.976 18.744V24.36H263.784ZM267.832 19.48C268.419 19.48 268.878 19.272 269.208 18.856C269.55 18.4293 269.72 17.8107 269.72 17C269.72 16.1893 269.555 15.576 269.225 15.16C268.905 14.7333 268.451 14.52 267.865 14.52C267.491 14.52 267.161 14.6213 266.872 14.824C266.595 15.016 266.376 15.2987 266.216 15.672C266.056 16.0347 265.976 16.4773 265.976 17C265.976 17.512 266.051 17.9547 266.2 18.328C266.35 18.7013 266.563 18.9893 266.84 19.192C267.128 19.384 267.459 19.48 267.832 19.48Z" fill="white"/>
</svg>
